<svg width="50" height="50" viewBox="0 0 50 50" fill="none" xmlns="http://www.w3.org/2000/svg">
<path d="M25.8 20C25.5833 20.0067 25.375 20.0967 25.2217 20.2533L20.825 24.6367L18.1167 21.9367C17.3583 21.1467 16.1333 22.3667 16.925 23.1233L20.23 26.42C20.5583 26.7483 21.0917 26.7483 21.4217 26.42L26.4133 21.4417C26.9633 20.9083 26.5583 20 25.8017 20H25.8ZM0.833333 26.6667H5.83333C6.295 26.6667 6.66667 27.0383 6.66667 27.5C6.66667 27.9617 6.295 28.3333 5.83333 28.3333H0.833333C0.371667 28.3333 0 27.9617 0 27.5C0 27.0383 0.371667 26.6667 0.833333 26.6667ZM0.833333 20H5.83333C6.295 20 6.66667 20.3717 6.66667 20.8333C6.66667 21.295 6.295 21.6667 5.83333 21.6667H0.833333C0.371667 21.6667 0 21.295 0 20.8333C0 20.3717 0.371667 20 0.833333 20ZM0.833333 13.3333H5.83333C6.295 13.3333 6.66667 13.705 6.66667 14.1667C6.66667 14.6283 6.295 15 5.83333 15H0.833333C0.371667 15 0 14.6283 0 14.1667C0 13.705 0.371667 13.3333 0.833333 13.3333ZM40.8333 31.6667C38.5417 31.6667 36.6667 33.5417 36.6667 35.8333C36.6667 38.125 38.5417 40 40.8333 40C43.125 40 45 38.125 45 35.8333C45 33.5417 43.125 31.6667 40.8333 31.6667ZM40.8333 33.3333C42.2233 33.3333 43.3333 34.4433 43.3333 35.8333C43.3333 37.2233 42.2233 38.3333 40.8333 38.3333C39.4433 38.3333 38.3333 37.2233 38.3333 35.8333C38.3333 34.4433 39.4433 33.3333 40.8333 33.3333ZM19.1667 31.6667C16.875 31.6667 15 33.5417 15 35.8333C15 38.125 16.875 40 19.1667 40C21.4583 40 23.3333 38.125 23.3333 35.8333C23.3333 33.5417 21.4583 31.6667 19.1667 31.6667ZM19.1667 33.3333C20.5567 33.3333 21.6667 34.4433 21.6667 35.8333C21.6667 37.2233 20.5567 38.3333 19.1667 38.3333C17.7767 38.3333 16.6667 37.2233 16.6667 35.8333C16.6667 34.4433 17.7767 33.3333 19.1667 33.3333ZM10.8333 10C9.46333 10 8.33333 11.13 8.33333 12.5V30.8333C8.33333 32.2033 9.46333 33.3333 10.8333 33.3333H14.1667C15.2933 33.35 15.2933 31.65 14.1667 31.6667H10.8333C10.3567 31.6667 10 31.31 10 30.8333V12.5C10 12.0233 10.3567 11.6667 10.8333 11.6667H32.5C32.9767 11.6667 33.3333 12.0233 33.3333 12.5V31.6667H24.1667C23.0667 31.6667 23.0867 33.35 24.1667 33.3333H35.8333C36.9333 33.3333 36.9233 31.6667 35.8333 31.6667H35V16.6667H42.045L48.3333 26.4933V30.8333C48.3333 31.31 47.9767 31.6667 47.5 31.6667H45.8333C44.7433 31.6667 44.7433 33.3333 45.8333 33.3333H47.5C48.87 33.3333 50 32.2033 50 30.8333V26.25C50 26.0917 49.955 25.9333 49.87 25.8L43.2033 15.3833C43.05 15.145 42.7867 15 42.5 15H35V12.5C35 11.13 33.87 10 32.5 10H10.8333Z" fill="white"/>
</svg>
