<svg width="50" height="50" viewBox="0 0 50 50" fill="none" xmlns="http://www.w3.org/2000/svg">
<g clip-path="url(#clip0_39_150)">
<path d="M17.5 28.3333H40.8333C41.2967 28.3333 41.6667 28.705 41.6667 29.1667C41.6667 29.6283 41.2967 30 40.8333 30H17.5C17.04 30 16.6667 29.6283 16.6667 29.1667C16.6667 28.705 17.04 28.3333 17.5 28.3333ZM15.8333 21.6667H42.5C42.9633 21.6667 43.3333 22.0383 43.3333 22.5C43.3333 22.9617 42.9633 23.3333 42.5 23.3333H15.8333C15.3733 23.3333 15 22.9617 15 22.5C15 22.0383 15.3733 21.6667 15.8333 21.6667ZM0.833333 8.33334C-0.255 8.33334 -0.283334 10 0.833333 10H6.83333C6.96333 10.5767 7.9 14.6833 9.02 19.56C10.215 24.77 11.44 31.76 11.6967 32.715C11.9167 33.5383 12.1217 34.4733 12.73 35.2883C13.3333 36.1017 14.3967 36.665 15.8333 36.665H42.5C43.9333 36.665 45 36.1017 45.605 35.2883C46.2117 34.4717 46.4167 33.5383 46.6383 32.7133C47.08 31.0583 49.3383 21.14 49.7883 19.46C50.0417 18.5167 50.125 17.5333 49.825 16.6433C49.525 15.7533 48.625 14.9967 47.5 14.9967H14.1667C13.0783 14.9967 13.0667 16.6633 14.1667 16.6633H47.5C48.0417 16.6633 48.11 16.78 48.245 17.18C48.3783 17.5767 48.3717 18.3033 48.1783 19.0267C47.7333 20.68 45.4783 30.6017 45.0283 32.2817C44.8033 33.125 44.5917 33.8567 44.2683 34.2917C43.945 34.7283 43.5683 34.9983 42.5017 34.9983H15.835C14.7683 34.9983 14.3917 34.7283 14.0683 34.2917C13.7433 33.8583 13.5317 33.125 13.305 32.2833C13.115 31.5733 11.8383 24.3967 10.6467 19.19C9.45167 13.9817 8.31333 8.98167 8.31333 8.98167C8.23 8.6 7.89167 8.33334 7.5 8.33334H0.833333ZM39.1667 38.3333C36.8783 38.3333 35 40.2083 35 42.5C35 44.7917 36.8783 46.6667 39.1667 46.6667C41.46 46.6667 43.3333 44.7917 43.3333 42.5C43.3333 40.2083 41.4617 38.3333 39.1667 38.3333ZM39.1667 40C40.56 40 41.6667 41.11 41.6667 42.5C41.6667 43.89 40.56 45 39.1667 45C37.7783 45 36.6667 43.89 36.6667 42.5C36.6667 41.11 37.7783 40 39.1667 40ZM19.1667 38.3333C16.88 38.3333 15 40.2083 15 42.5C15 44.7917 16.8783 46.6667 19.1667 46.6667C21.46 46.6667 23.3333 44.7917 23.3333 42.5C23.3333 40.2083 21.4617 38.3333 19.1667 38.3333ZM19.1667 40C20.56 40 21.6667 41.11 21.6667 42.5C21.6667 43.89 20.56 45 19.1667 45C17.7783 45 16.6667 43.89 16.6667 42.5C16.6667 41.11 17.7783 40 19.1667 40Z" fill="white"/>
</g>
<defs>
<clipPath id="clip0_39_150">
<rect width="50" height="50" fill="white"/>
</clipPath>
</defs>
</svg>
