<svg width="50" height="50" viewBox="0 0 50 50" fill="none" xmlns="http://www.w3.org/2000/svg">
<g clip-path="url(#clip0_39_148)">
<path d="M34.1667 16.6667C33.95 16.6667 33.7233 16.7667 33.5717 16.92L24.4083 26.0833C23.9967 26.495 23.635 26.64 23.325 26.6417C23.0183 26.6417 22.6817 26.5083 22.255 26.0833L18.1 21.9333C17.3433 21.1417 16.1417 22.3617 16.9233 23.1133L21.0783 27.2633C21.7317 27.9167 22.5 28.3133 23.3283 28.3083C24.1533 28.3033 24.9517 27.8983 25.585 27.265L34.7517 18.0983C35.2683 17.59 34.9317 16.665 34.1683 16.665L34.1667 16.6667ZM24.5333 0.0833333C24.3133 0.18 23.9833 0.388333 23.5967 0.625C23.2083 0.861667 22.4517 1.34167 21.7133 1.745C20.2333 2.545 18.38 3.33667 16.6667 3.33667C14.8333 3.33667 13.4617 2.95333 12.1867 2.54167C10.9133 2.13 9.72499 1.66667 8.33333 1.66667C7.04333 1.66667 5.78999 1.87 4.82166 2.67167C3.84999 3.475 3.33333 4.86 3.33333 6.66667V20C3.33333 21.9667 3.01666 28.7783 6.77333 35.4133C8.98499 39.3167 12.8067 42.905 16.4033 45.5667C18.2033 46.8967 19.9433 47.9917 21.42 48.7633C22.895 49.535 24.0033 50 25 50C26 50 27.105 49.5333 28.58 48.7633C30.0567 47.9917 31.7967 46.8967 33.5967 45.5667C37.1933 42.905 41.0133 39.3167 43.2267 35.4133C46.9833 28.78 46.6667 21.9667 46.6667 20V6.66667C46.6667 4.86 46.15 3.475 45.1783 2.67167C44.2117 1.87167 42.9567 1.66667 41.6667 1.66667C40.2767 1.66667 39.0867 2.13 37.8117 2.53833C36.54 2.95 35.1667 3.33333 33.3333 3.33333C31.6167 3.33333 29.7533 2.54333 28.275 1.74167C27.535 1.34167 26.7917 0.888333 26.3917 0.621667C25.9867 0.355 25.6533 0.188333 25.455 0.08C25.2217 -0.0266667 24.775 -0.0266667 24.5317 0.08L24.5333 0.0833333ZM25 1.81667C25.1533 1.81667 25.2883 1.9 25.505 2.03667C26.0017 2.34833 26.68 2.77667 27.4767 3.20833C29.07 4.07167 31.1433 5 33.3333 5C35.4033 5 37 4.55 38.32 4.12833C39.6367 3.70333 40.6633 3.33333 41.6667 3.33333C42.77 3.33333 43.6 3.53333 44.1167 3.95833C44.6333 4.385 45 5.15833 45 6.66667V20C45 22.1283 45.2783 28.4083 41.7733 34.5917C39.7567 38.155 36.0733 41.6583 32.6033 44.2283C30.87 45.5117 29.1867 46.5667 27.81 47.2883C26.43 48.01 25.2517 48.3333 25 48.3333C24.75 48.3333 23.57 48.01 22.19 47.2883C20.8117 46.5667 19.1317 45.5133 17.395 44.2283C13.925 41.6617 10.245 38.155 8.22833 34.5917C4.71999 28.4083 4.99999 22.1283 4.99999 20V6.66667C4.99999 5.15833 5.36666 4.38333 5.88333 3.95833C6.39999 3.53333 7.22833 3.33333 8.33333 3.33333C9.33666 3.33333 10.3617 3.70333 11.68 4.12833C12.9967 4.55 14.5967 5 16.6667 5C18.855 5 20.9167 4.07 22.51 3.205C23.3067 2.77167 23.985 2.345 24.4817 2.03333C24.6983 1.9 24.845 1.81167 24.9983 1.81167L25 1.81667Z" fill="white"/>
</g>
<defs>
<clipPath id="clip0_39_148">
<rect width="50" height="50" fill="white"/>
</clipPath>
</defs>
</svg>
