<svg width="50" height="50" viewBox="0 0 50 50" fill="none" xmlns="http://www.w3.org/2000/svg">
<path d="M2.5 18.3333C1.13 18.3333 0 19.4633 0 20.8333V45.8333C0 47.2033 1.13 48.3333 2.5 48.3333H14.1667C15.5367 48.3333 16.6667 47.2033 16.6667 45.8333V20.8333C16.6667 19.4633 15.5367 18.3333 14.1667 18.3333H2.5ZM2.5 20H14.1667C14.6433 20 15 20.3567 15 20.8333V45.8333C15 46.31 14.6433 46.6667 14.1667 46.6667H2.5C2.02333 46.6667 1.66667 46.31 1.66667 45.8333V20.8333C1.66667 20.3567 2.02333 20 2.5 20ZM29.1667 1.66667C28.5633 1.66667 27.9667 1.73333 27.4 1.98333C26.8367 2.23333 26.33 2.67833 25.9733 3.28333C25.26 4.5 25 6.27833 25 9.16667C25 14.4233 21.2167 18.4633 18.705 20.14C17.8217 20.7067 18.7383 22.14 19.6283 21.5267C22.1167 19.87 26.6667 15.2433 26.6667 9.16667C26.6667 6.39167 26.995 4.83333 27.4083 4.13333C27.6167 3.77833 27.8117 3.62167 28.075 3.50667C28.3333 3.39 28.6917 3.33333 29.1667 3.33333C29.9617 3.33333 30.4133 3.59667 30.8833 4.61C31.3567 5.62333 31.6667 7.40667 31.6667 10C31.6667 14.9617 28.5333 20.29 28.5333 20.29C28.07 20.83 28.4533 21.6667 29.1667 21.6667H45.8333C46.8 21.6667 47.375 21.9133 47.7417 22.2917C48.1083 22.67 48.3333 23.2583 48.3333 24.1667C48.3333 25.8267 47.005 26.83 47.005 26.83C46.55 27.1633 46.555 27.8467 47.015 28.1767C47.015 28.1767 48.3317 29.1267 48.3317 30.8333C48.3317 32.5417 47.015 33.49 47.015 33.49C46.51 33.8533 46.565 34.62 47.1183 34.9067C47.1183 34.9067 48.3317 35.4783 48.3317 37.0833C48.3317 38.6883 47.1183 39.2617 47.1183 39.2617C46.5283 39.5667 46.515 40.405 47.095 40.7283C47.095 40.7283 48.3317 41.3883 48.3317 42.9167C48.3317 43.6833 48.0583 44.1217 47.615 44.4633C47.1717 44.8033 46.5117 45 45.8317 45H19.165C18.0367 45 18.095 46.6667 19.165 46.6667H45.8317C46.8183 46.6667 47.825 46.4033 48.6317 45.7833C49.4383 45.1667 49.9983 44.145 49.9983 42.9167C49.9983 41.46 49.355 40.5883 48.755 40.0067C49.3583 39.4283 49.9983 38.5567 49.9983 37.0833C49.9983 35.54 49.31 34.675 48.6933 34.1117C49.2883 33.4783 49.9983 32.5 49.9983 30.8333C49.9983 29.095 49.235 28.105 48.6383 27.4967C49.2317 26.885 49.9983 25.8917 49.9983 24.1667C49.9983 22.9717 49.6767 21.8967 48.9367 21.1333C48.1967 20.37 47.1033 20 45.8317 20H30.6883C31.6867 18.5883 33.3333 14.2333 33.3333 10C33.3333 7.28333 33.05 5.31667 32.395 3.90667C31.74 2.49667 30.5283 1.66667 29.1667 1.66667Z" fill="white"/>
</svg>
