<svg width="50" height="50" viewBox="0 0 50 50" fill="none" xmlns="http://www.w3.org/2000/svg">
<path d="M9.16667 8.33334C8.075 8.33334 8.06667 10.0167 9.16667 10H45.8333C46.31 10 46.6667 10.3567 46.6667 10.8333V32.5C46.6667 33.6 48.3333 33.6 48.3333 32.5V10.8333C48.3333 9.46334 47.2033 8.33334 45.8333 8.33334H9.16667ZM5.83333 11.6667C4.74333 11.6667 4.74333 13.3333 5.83333 13.3333H42.5C42.9767 13.3333 43.3333 13.69 43.3333 14.1667V35.8333C43.3333 36.9417 45.0167 36.9333 45 35.8333V14.1667C45 12.7967 43.87 11.6667 42.5 11.6667H5.83333ZM2.5 15C1.13 15 0 16.13 0 17.5V37.5C0 38.87 1.13 40 2.5 40H39.1667C40.5367 40 41.6667 38.87 41.6667 37.5V17.5C41.6667 16.13 40.5367 15 39.1667 15H2.5ZM2.5 16.6667H39.1667C39.6433 16.6667 40 17.0233 40 17.5V37.5C40 37.9767 39.6433 38.3333 39.1667 38.3333H2.5C2.02333 38.3333 1.66667 37.9767 1.66667 37.5V17.5C1.66667 17.0233 2.02333 16.6667 2.5 16.6667ZM4.16667 18.3333C3.70667 18.3333 3.33333 18.7067 3.33333 19.1667V22.5C3.33333 23.62 5 23.5933 5 22.5V20H7.5C8.62 20 8.59333 18.3333 7.5 18.3333H4.16667ZM20.8333 18.3333C15.78 18.3333 11.6667 22.4467 11.6667 27.5C11.6667 32.5533 15.78 36.6667 20.8333 36.6667C25.8867 36.6667 30 32.5533 30 27.5C30 22.4467 25.8867 18.3333 20.8333 18.3333ZM34.1667 18.3333C33.0733 18.3333 33.0467 20 34.1667 20H36.6667V22.5C36.6667 23.5933 38.3333 23.62 38.3333 22.5V19.1667C38.3333 18.7067 37.96 18.3333 37.5 18.3333H34.1667ZM20.8333 20C24.9833 20 28.3333 23.35 28.3333 27.5C28.3333 31.65 24.9833 35 20.8333 35C16.6833 35 13.3333 31.65 13.3333 27.5C13.3333 23.35 16.6833 20 20.8333 20ZM20.8333 21.6667C20.3717 21.6667 20 22.0383 20 22.5V23.49C19.0367 23.84 18.3333 24.7567 18.3333 25.8333C18.3333 27.2 19.4667 28.3333 20.8333 28.3333C21.3 28.3333 21.6667 28.6867 21.6667 29.1667C21.6667 29.6467 21.3 30 20.8333 30H19.1667C18.6033 29.9917 18.3333 30.4133 18.3333 30.8333C18.3333 31.2533 18.6033 31.675 19.1667 31.6667H20V32.5C20 32.9617 20.3717 33.3333 20.8333 33.3333C21.295 33.3333 21.6667 32.9617 21.6667 32.5V31.51C22.63 31.16 23.3333 30.2433 23.3333 29.1667C23.3333 27.8 22.2 26.6667 20.8333 26.6667C20.3667 26.6667 20 26.3133 20 25.8333C20 25.3533 20.3667 25 20.8333 25H22.5C23.0633 25.0083 23.3333 24.5867 23.3333 24.1667C23.3333 23.7467 23.0633 23.325 22.5 23.3333H21.6667V22.5C21.6667 22.0383 21.295 21.6667 20.8333 21.6667ZM4.16667 31.67C3.75 31.6667 3.33333 31.94 3.33333 32.5V35.8333C3.33333 36.2933 3.70667 36.6667 4.16667 36.6667H7.5C8.59333 36.6667 8.62 35 7.5 35H5V32.5C5 31.9533 4.58333 31.6733 4.16667 31.67ZM37.5 31.67C37.0833 31.6733 36.6667 31.9533 36.6667 32.5V35H34.1667C33.0467 35 33.0733 36.6667 34.1667 36.6667H37.5C37.96 36.6667 38.3333 36.2933 38.3333 35.8333V32.5C38.3333 31.94 37.9167 31.6667 37.5 31.67Z" fill="white"/>
</svg>
