<svg width="50" height="50" viewBox="0 0 50 50" fill="none" xmlns="http://www.w3.org/2000/svg">
<path d="M14.1667 28.3333H29.1667C29.6283 28.3333 30 28.705 30 29.1667C30 29.6283 29.6283 30 29.1667 30H14.1667C13.705 30 13.3333 29.6283 13.3333 29.1667C13.3333 28.705 13.705 28.3333 14.1667 28.3333ZM21.6667 31.6667C19.8333 31.6667 18.3333 33.1667 18.3333 35C18.3333 36.8333 19.8333 38.3333 21.6667 38.3333C23.5 38.3333 25 36.8333 25 35C25 33.1667 23.5 31.6667 21.6667 31.6667ZM21.6667 33.3333C22.5967 33.3333 23.3333 34.07 23.3333 35C23.3333 35.93 22.5967 36.6667 21.6667 36.6667C20.7367 36.6667 20 35.93 20 35C20 34.07 20.7367 33.3333 21.6667 33.3333ZM21.6667 20C19.8333 20 18.3333 21.5 18.3333 23.3333C18.3333 25.1667 19.8333 26.6667 21.6667 26.6667C23.5 26.6667 25 25.1667 25 23.3333C25 21.5 23.5 20 21.6667 20ZM21.6667 21.6667C22.5967 21.6667 23.3333 22.4033 23.3333 23.3333C23.3333 24.2633 22.5967 25 21.6667 25C20.7367 25 20 24.2633 20 23.3333C20 22.4033 20.7367 21.6667 21.6667 21.6667ZM41.6667 5C39.8333 5 38.3333 6.5 38.3333 8.33333C38.3333 10.1667 39.8333 11.6667 41.6667 11.6667C43.5 11.6667 45 10.1667 45 8.33333C45 6.5 43.5 5 41.6667 5ZM41.6667 6.66667C42.5967 6.66667 43.3333 7.40333 43.3333 8.33333C43.3333 9.26333 42.5967 10 41.6667 10C40.7367 10 40 9.26333 40 8.33333C40 7.40333 40.7367 6.66667 41.6667 6.66667ZM0.743337 26.1167C-0.234996 27.0833 -0.22833 28.6867 0.743337 29.6567L20.3433 49.2567C21.31 50.2267 22.9133 50.235 23.8817 49.2567L48.0917 24.75C48.5033 24.3333 48.9783 23.95 49.3717 23.3233C49.7633 22.6967 49.9983 21.8733 49.9983 20.75V2.5C49.9983 1.12833 48.8683 0 47.4983 0H29.165C27.235 0 26.125 1.04 25.2483 1.90833L0.743337 26.1167ZM1.915 27.3033L26.4167 3.09333C27.305 2.21667 27.7633 1.66667 29.1667 1.66667H47.5C47.975 1.66667 48.3333 2.02333 48.3333 2.5V20.7533C48.3333 21.665 48.1783 22.095 47.96 22.4417C47.7433 22.7917 47.3867 23.0983 46.91 23.5817L22.6933 48.0817C22.365 48.415 21.86 48.415 21.5217 48.0783L1.92167 28.4783C1.58334 28.14 1.58 27.6317 1.915 27.3017V27.3033Z" fill="white"/>
</svg>
