<svg width="64" height="64" viewBox="0 0 64 64" fill="none" xmlns="http://www.w3.org/2000/svg">
<circle cx="32" cy="32" r="32" fill="white"/>
<path d="M15.1738 37.9843L22.3816 39.2552L22.0204 41.3036L14.8126 40.0327L15.1738 37.9843ZM17.0396 40.9534L19.6001 41.4049L18.4984 47.6525L15.9379 47.201L17.0396 40.9534Z" fill="#E00303"/>
<path d="M19.9772 41.9138L20.0345 41.5888L22.0278 41.9403L23.9787 49.1201L23.476 49.8804L22.0677 49.6321L19.9772 41.9138ZM25.393 46.9903L25.3496 46.9827L24.3144 48.6097L23.7342 46.4521L26.1551 42.668L28.2134 43.031L26.8992 50.484L24.8409 50.1211L25.393 46.9903ZM19.7881 42.9862L21.0326 47.5842L20.7136 49.3933L18.7204 49.0418L19.7881 42.9862Z" fill="black"/>
<path d="M40.954 4.17444C39.0002 4.59869 37.493 5.44718 35.8407 7.05484C35.3048 7.5684 34.6796 8.17127 34.4563 8.3834C33.8758 8.93045 33.5967 9.77894 33.4627 11.275C33.3287 12.905 33.4404 19.8268 33.6525 22.216C33.7418 23.2543 33.8088 24.1363 33.8088 24.1698C33.8088 24.2033 33.3399 24.2256 32.7817 24.2256C31.8662 24.2256 31.6764 24.2591 31.1628 24.5382C29.9906 25.1522 28.7737 26.5143 26.7976 29.417C26.3622 30.0645 25.4914 31.1698 24.8661 31.8732C24.2521 32.5765 23.6157 33.3692 23.4594 33.626C23.2362 34.0055 23.1357 34.0949 22.9459 34.0502C22.3542 33.9051 15.7895 32.8221 12.4849 32.3197C10.4865 32.0071 8.53272 31.6834 8.13081 31.5941C7.21533 31.3931 5.39554 31.2591 4.84849 31.3596C4.20096 31.4824 4 31.7615 4 32.5095C4 34.9545 5.58534 44.0646 6.96971 49.5686C7.24882 50.6851 7.32697 50.8302 7.84053 51.0088C8.55505 51.2768 11.8374 52.2257 14.6061 52.9626C15.9905 53.331 18.2792 53.9451 19.6859 54.3135C21.1038 54.6931 24.2186 55.5527 26.6078 56.2226C29.0081 56.8924 31.922 57.6963 33.0831 58.0089C34.2554 58.3215 35.4276 58.6676 35.6956 58.7904C36.4882 59.1365 36.7562 59.0807 37.4595 58.422C38.3527 57.5735 38.8551 56.8589 39.8487 54.9722C40.8981 52.9961 41.3112 52.3374 42.8854 50.1492C43.5441 49.2337 44.1693 48.3406 44.2698 48.1619C44.4931 47.7823 44.4707 47.7823 45.7323 48.2289C47.1055 48.709 48.4676 48.9323 51.5936 49.1779C54.7196 49.4123 55.3894 49.39 56.4836 49.0104C58.5043 48.2959 59.3193 46.7329 59.3081 43.5957C59.297 42.7696 59.2858 40.2129 59.2858 37.9242C59.2635 33.8046 59.1518 32.2416 58.8057 31.0917C57.9238 28.1889 56.2603 26.6036 52.9891 25.5541C52.2411 25.3197 52.0067 25.1857 51.962 25.0071C51.8504 24.5828 51.2363 23.7679 50.7562 23.4218C50.3767 23.1538 50.2427 22.964 50.1422 22.5733C50.0641 22.2942 49.8854 21.9257 49.7403 21.7583L49.4724 21.4568L49.8966 20.8428C50.6558 19.7599 51.0354 18.3978 50.7786 17.6386C50.7004 17.4153 50.4995 17.0692 50.332 16.8683L50.0194 16.511L50.1757 15.629C50.9795 11.1633 51.0354 10.393 50.6669 9.18723C50.4213 8.37223 49.9301 7.82518 49.2714 7.59073C48.903 7.46792 48.8137 7.36744 48.635 6.87621C48.1885 5.68163 46.9046 4.67684 45.2522 4.23026C44.2028 3.95115 42.0927 3.91766 40.954 4.17444ZM45.2522 5.3132C46.5361 5.70396 47.3288 6.40731 47.7084 7.50141C47.8424 7.86984 47.8424 7.93682 47.6749 8.05963C47.4069 8.27175 47.3176 8.23826 47.3176 7.89217C47.3176 7.7247 47.2172 7.38977 47.1055 7.14415C46.6478 6.16169 45.6765 5.62581 44.1916 5.54765C43.0752 5.49183 43.0975 5.62581 44.2474 5.90491C45.9667 6.32916 46.9604 7.27813 46.7148 8.26059C46.6254 8.61785 46.4803 8.5397 46.391 8.10429C46.3017 7.65771 45.6876 6.98785 45.1406 6.74224C44.7833 6.57477 44.4037 6.53012 43.1645 6.53012C42.316 6.53012 41.6238 6.57477 41.6238 6.6306C41.6238 6.77573 42.0146 6.85388 43.2761 6.97669C44.5824 7.0995 45.2746 7.34511 45.6207 7.83634C45.9667 8.32757 46.0114 8.65134 45.777 9.08675C45.509 9.57798 45.3081 9.65613 45.3081 9.26538C45.3081 8.68483 44.7498 7.99264 43.9683 7.57956C43.6669 7.42326 43.198 7.36744 41.8471 7.31162C40.8981 7.26696 40.0943 7.24463 40.0831 7.26696C40.0608 7.27813 40.1725 7.37861 40.3288 7.47909C40.4851 7.59073 41.0209 7.71354 41.5345 7.76936C43.0752 7.93682 43.7339 8.07079 43.9907 8.24942C44.2251 8.41689 44.2139 8.42805 43.5776 8.45038C41.2666 8.5062 40.7642 8.51737 40.5632 8.5062C39.8264 8.49504 38.6988 8.55086 37.6047 8.65134C37.5153 8.6625 37.1134 8.62901 36.7115 8.57319L35.9858 8.48388L36.9348 7.52374C37.7275 6.73107 38.0512 6.49662 38.9444 6.06121C41.1326 5.01177 43.3878 4.73266 45.2522 5.3132ZM49.1039 8.75182C50.1199 9.46634 50.0864 11.1298 48.9365 16.6338C48.903 16.7678 48.702 16.9353 48.4341 17.0469C48.1885 17.1474 47.9875 17.2255 47.9875 17.2144C47.9875 17.2032 48.0656 16.9911 48.155 16.7455C48.2443 16.4999 48.3113 16.098 48.3113 15.8523V15.4058L47.9317 16.1873C47.7307 16.6115 47.4404 17.1139 47.2841 17.2925L47.0162 17.6275L47.072 16.4887C47.1278 15.216 46.9827 14.9592 46.7929 16.0086C46.592 17.0581 46.19 18.476 46.0784 18.476C46.0226 18.476 45.9779 17.9624 45.9779 17.326C45.9779 15.5956 45.5648 13.6195 45.0401 12.8715C44.8615 12.6258 44.8615 12.6258 44.8615 13.0054C44.8615 13.2176 44.9173 13.5971 44.9731 13.8428C45.0289 14.0884 45.0513 14.3117 45.0178 14.3451C44.9061 14.4456 43.9683 13.2845 43.8455 12.8826C43.7339 12.5142 43.745 12.4472 44.0911 11.956C44.4261 11.4871 44.4931 11.4424 44.7945 11.5094C45.8774 11.7439 46.2682 12.1458 46.5473 13.2957C46.6589 13.7646 46.7817 14.1777 46.8152 14.2112C46.8487 14.2447 46.8711 13.8874 46.8711 13.4073C46.8711 12.0788 46.525 11.5206 45.4867 11.1187C45.0289 10.9512 44.9843 10.9065 45.1406 10.7726C45.2299 10.6944 45.5537 10.6051 45.8439 10.5828C46.5026 10.5269 46.9715 10.7949 47.34 11.4313C47.8089 12.2574 47.9317 11.9337 47.4851 11.0293C47.273 10.6051 47.0832 10.4041 46.7036 10.2032C46.1454 9.90175 46.2235 9.76777 46.9604 9.76777C47.6191 9.76777 47.82 9.90175 48.0545 10.4935C48.2443 11.007 48.2443 11.5206 48.0322 13.2287C47.9428 14.0102 48.1103 13.8874 48.4341 12.9496C48.7355 12.1011 48.836 10.9735 48.6685 10.3595C48.5345 9.89058 47.9093 9.20956 47.5967 9.20956C47.5074 9.20956 47.4293 9.15374 47.4293 9.09791C47.4293 8.88579 47.8535 8.98627 48.1996 9.26538C48.5122 9.54449 48.702 9.96873 48.9923 11.0963C49.1486 11.6992 49.3272 11.5317 49.3272 10.7949C49.3272 9.9464 49.1039 9.3212 48.6239 8.84113L48.1773 8.39456L48.5011 8.47271C48.6797 8.51737 48.9476 8.64018 49.1039 8.75182ZM40.753 9.53332C41.0209 9.81243 41.2331 10.192 41.3447 10.5939C41.4452 10.94 41.5792 11.1968 41.635 11.1633C41.8136 11.0405 41.7355 10.0692 41.5122 9.55565C41.3894 9.28771 41.2889 9.05326 41.2889 9.03093C41.2889 8.93045 41.9922 8.99743 42.3272 9.14257C42.8184 9.35469 43.0529 9.64497 43.1087 10.1362C43.1645 10.6609 43.2426 10.7391 43.4101 10.4265C43.4994 10.2702 43.5218 9.9464 43.4883 9.57798C43.4324 9.03093 43.4436 8.98627 43.6557 8.98627C44.2363 8.98627 44.4484 9.62264 44.1916 10.5493C44.0465 11.0852 43.0305 12.2016 42.4611 12.4584C41.6796 12.8156 38.7992 12.6593 37.0353 12.1681C35.9747 11.8778 35.5727 11.9113 34.8471 12.3579L34.4786 12.5812L34.4898 11.8108C34.4898 10.8954 34.6015 10.2143 34.7578 10.1809C34.8247 10.1697 34.9699 10.3706 35.0927 10.6274C35.2155 10.8954 35.3495 11.1075 35.3941 11.1075C35.5504 11.1075 35.4946 10.326 35.316 9.99106C35.1485 9.67846 35.1597 9.65613 35.3606 9.65613C35.6621 9.65613 36.1645 10.1027 36.8008 10.9177C37.1581 11.3978 37.3367 11.5541 37.359 11.4201C37.4149 11.1075 36.8455 10.058 36.3543 9.54449L35.8742 9.07559L36.4324 9.15374C37.1134 9.24305 37.5153 9.44401 37.8168 9.83476C38.0512 10.1362 38.0624 10.1697 38.2745 10.9735C38.3415 11.2303 38.442 11.4201 38.4978 11.3866C38.6988 11.2638 38.6206 10.1697 38.3862 9.71195C38.1071 9.1649 38.1071 9.09791 38.3862 9.09791C39.0225 9.09791 39.7705 9.8236 40.1725 10.8396C40.4851 11.6434 40.619 11.8108 40.619 11.4089C40.619 10.6163 40.1166 9.20956 39.8264 9.20956C39.7705 9.20956 39.7259 9.15374 39.7259 9.08675C39.7259 8.84113 40.3399 9.10908 40.753 9.53332ZM36.879 12.8268C38.989 13.5413 41.635 13.6418 42.9859 13.0613C43.131 13.0054 43.2092 13.0501 43.2873 13.2622C43.3543 13.4185 43.7227 13.9097 44.1246 14.334C45.1518 15.4616 45.3192 15.964 45.4197 18.141C45.4978 19.8938 45.5648 20.2622 45.7881 20.2622C45.8663 20.2622 46.2012 19.9496 46.5361 19.5701C47.6302 18.342 48.1438 17.8619 48.6908 17.5828L49.2267 17.3037L49.517 17.6275C49.7515 17.9066 49.785 18.0405 49.7515 18.4648C49.6845 19.1123 49.1932 20.1506 48.7243 20.653C48.1215 21.2782 48.0656 21.0996 48.6015 20.3181C49.45 19.0788 49.517 18.2527 48.7802 18.0629C48.2443 17.9289 47.753 18.3308 47.2841 19.2798C46.6589 20.5302 46.7929 20.7535 47.5186 19.6705C48.4452 18.3085 49.0593 18.3197 48.3336 19.6705C47.8535 20.5637 47.4069 21.0214 46.8934 21.1107C46.6701 21.1554 46.3798 21.2447 46.257 21.3117C46.0672 21.4122 46.123 21.4457 46.6478 21.4903L47.2618 21.5461L46.6589 21.8587C46.3352 22.0374 45.8663 22.216 45.6095 22.2495C45.1518 22.3277 45.1518 22.3388 44.9731 23.0533C44.7498 24.0023 44.3144 24.7391 43.4659 25.5765C41.8918 27.1618 39.2347 28.2671 37.761 27.9656C36.7227 27.7424 35.863 26.7599 35.1597 24.9736C34.7801 24.0135 34.5903 21.8029 34.5233 17.5828C34.4563 13.8428 34.4675 13.7199 34.6908 13.3739C34.9141 13.0166 35.6062 12.57 35.93 12.57C36.0193 12.5589 36.4547 12.6817 36.879 12.8268ZM48.9141 22.4281C49.0146 22.5621 49.1263 22.8859 49.1709 23.1203C49.2267 23.3994 49.3719 23.6562 49.584 23.8348C50.4102 24.527 50.8791 25.0406 50.9572 25.342C51.0242 25.6323 50.9795 25.7104 50.5441 26.1012C48.2108 28.1889 46.4468 29.1937 44.0242 29.8078L43.0194 30.0645L43.7004 30.0757C45.6095 30.098 47.8424 29.0374 50.4771 26.8715L51.348 26.157L52.6095 26.5589C55.4118 27.4744 56.9971 28.9481 57.7563 31.3484C58.0466 32.2639 58.2922 34.0279 58.2364 34.7759L58.2029 35.2783L57.9238 34.8317C57.5442 34.2177 56.8296 33.4473 56.4501 33.2575C56.0816 33.0677 56.037 33.2017 56.3719 33.5032C56.785 33.8827 57.5665 35.2671 57.8791 36.1714C58.147 36.9641 58.1694 37.2097 58.1582 38.4266C58.147 39.3756 58.0801 39.9226 57.9684 40.2129C57.3655 41.642 55.9477 43.0598 54.5968 43.5511C53.7929 43.8525 53.7595 43.9641 54.4963 43.8972C54.8536 43.8637 55.4118 43.6962 55.7579 43.5287C56.3719 43.2273 57.399 42.3118 57.8903 41.642L58.1359 41.307V42.0439C58.147 42.7249 58.1135 42.8365 57.6893 43.4952C56.4947 45.3374 55.4899 46.2752 54.6861 46.2752C54.3847 46.2752 54.1614 46.1747 53.8153 45.8732C53.3129 45.4378 53.2124 45.5383 53.5697 46.1077C53.8264 46.5208 54.3847 46.8334 54.8647 46.8334C55.6239 46.8334 57.0418 45.6611 57.7563 44.433C57.9238 44.1539 58.0801 43.9306 58.1135 43.9306C58.147 43.9306 58.147 44.3549 58.1135 44.8796C58.0019 46.4538 57.4549 47.3358 56.2268 47.9051C55.5234 48.2289 55.5123 48.2289 53.6255 48.1954C52.5872 48.1731 51.3033 48.1284 50.7786 48.0838C49.7068 47.9945 49.7961 48.1284 49.9524 46.8669C50.0194 46.3533 49.8743 44.9578 49.7068 44.3437C49.5617 43.8637 49.4389 44.3772 49.4389 45.4378C49.4389 46.6659 49.2826 47.6372 49.0704 47.827C48.9811 47.894 48.6239 47.8828 47.9987 47.7712C46.19 47.4586 44.56 46.7329 43.745 45.8956L43.3655 45.4937L44.0018 44.2098L44.6382 42.9259H45.1183C45.375 42.9259 46.3575 43.0487 47.2953 43.205C48.2331 43.3613 49.0481 43.4841 49.1151 43.4841C49.1709 43.4841 49.2826 43.3389 49.3384 43.1603C49.4835 42.7472 49.8296 42.6802 50.8121 42.8589C51.6606 43.0263 51.6606 43.0152 51.3926 42.2448C51.2252 41.7759 51.1358 40.5144 51.2586 40.3916C51.2921 40.3581 51.4261 40.5367 51.5378 40.7711C51.9955 41.6531 53.458 43.3278 53.458 42.9705C53.458 42.9259 53.1901 42.4346 52.8551 41.8764C51.4149 39.4426 51.4261 39.5096 51.6271 36.752C51.8057 34.1842 52.0178 33.1459 52.6207 31.9625C52.844 31.5271 53.0003 31.1475 52.9668 31.114C52.8328 30.9912 52.0178 31.996 51.6829 32.677C51.2252 33.626 50.9572 34.8764 50.6781 37.3549C50.5441 38.4936 50.3878 39.5989 50.332 39.811C50.265 40.012 50.2204 40.5255 50.2204 40.9274V41.6643L49.718 41.7201C49.4277 41.7536 49.0593 41.8987 48.8471 42.0662C48.5234 42.3118 48.4117 42.3341 48.0322 42.256C47.7977 42.2113 47.3958 42.1332 47.1613 42.0885L46.7259 42.0215L47.3065 41.7536C48.155 41.3628 48.8471 40.8493 49.1597 40.3916C49.3049 40.1683 49.4165 39.9673 49.3942 39.945C49.383 39.9226 48.9811 40.1571 48.5234 40.4697C47.5632 41.1172 46.458 41.5303 45.2522 41.7201C44.4596 41.8429 44.3702 41.8317 43.5553 41.5526C43.0752 41.3963 41.8806 41.0279 40.9093 40.7488C39.9268 40.4809 39.0895 40.1906 39.0337 40.1124C38.9667 40.0008 38.9221 39.0407 38.9444 38.1587C38.9444 38.114 39.123 38.0917 39.3351 38.114C39.8487 38.1475 39.8264 38.0582 39.2905 37.8349C38.9667 37.7121 38.8439 37.5893 38.7992 37.3549C38.7323 37.0199 38.2968 36.7855 37.7721 36.7855C37.4484 36.7855 36.131 35.4123 35.4276 34.3405C35.1485 33.8939 34.7019 33.1012 34.4563 32.5653C33.9539 31.4936 33.8088 31.4936 34.0879 32.5542C34.3558 33.6371 34.8024 34.5191 35.5727 35.5462C36.1533 36.3166 36.2314 36.4617 36.0193 36.417C35.8742 36.3836 34.6573 36.1379 33.3064 35.8812C31.9555 35.6244 30.8391 35.4011 30.8167 35.3899C30.7051 35.2894 31.0847 34.8764 31.5201 34.6084C32.4691 34.0614 32.6254 33.492 32.3128 31.7057C32.2234 31.2145 32.123 30.1315 32.0783 29.3054C31.989 27.5191 31.8997 27.0837 31.788 27.9656C31.6429 29.1044 31.6876 31.114 31.8662 32.1523C32.0895 33.4027 32.0113 33.6371 31.1628 34.2177C30.8391 34.4298 30.5041 34.7647 30.4037 34.9657C30.2474 35.2894 30.1915 35.3229 29.8678 35.256C29.1867 35.122 29.0639 35.0327 28.863 34.4856C28.5169 33.5143 28.3383 32.3979 28.3383 31.1698C28.3383 30.5111 28.2936 29.9752 28.2378 29.9752C28.1038 29.9752 27.8917 31.1363 27.8917 31.9401C27.8917 32.6658 28.115 34.0502 28.3271 34.5973C28.4052 34.7759 28.4387 34.9322 28.4276 34.9434C28.4052 34.9657 27.5456 34.8317 26.4961 34.6531C25.4579 34.4745 24.5312 34.3293 24.4531 34.3293C24.2186 34.3293 24.5647 33.8046 25.5583 32.677L26.4738 31.6275L26.6636 32.3644C26.8422 33.0901 27.1548 33.6595 27.4228 33.7488C27.5121 33.7711 27.4674 33.5701 27.3223 33.1906C27.1437 32.7775 27.0767 32.3421 27.0655 31.7615L27.0544 30.9242L28.2043 29.2272C30.0017 26.5813 31.0735 25.5541 32.2569 25.2974C33.0273 25.1299 33.8088 25.3197 33.8088 25.6658C33.8088 25.7998 33.8869 26.2017 33.9762 26.5701C34.3893 28.1554 35.316 29.4058 36.4659 29.9417C37.2251 30.299 37.4595 30.2208 36.8008 29.8301C35.7849 29.2384 34.7243 27.7089 34.5345 26.5701L34.4675 26.1235L34.7801 26.7264C35.2378 27.6084 35.9635 28.3564 36.6892 28.7137C37.2697 28.9928 37.426 29.0263 38.442 29.0151C39.737 28.9928 40.8535 28.6802 42.0704 27.9991C42.4723 27.7758 43.2761 27.3516 43.8567 27.039C44.4372 26.7376 45.1518 26.3133 45.442 26.1012C46.1677 25.5765 46.9715 24.661 47.2283 24.0693C47.5521 23.2989 47.4181 23.1426 47.0274 23.8348C46.8264 24.1698 46.458 24.6498 46.19 24.9066C45.6876 25.3644 44.8726 25.9561 44.7387 25.9561C44.694 25.9561 44.8726 25.6323 45.1406 25.2304C45.4085 24.8285 45.7435 24.2033 45.8774 23.8348C46.1007 23.2096 46.1454 23.165 46.6366 22.9975C46.9157 22.9082 47.4069 22.6737 47.7084 22.4951C48.3894 22.0932 48.6908 22.0709 48.9141 22.4281ZM6.89156 32.61L7.57259 32.6882V33.1124C7.57259 33.4697 7.61725 33.5478 7.82937 33.6036C7.96334 33.626 8.80067 33.8046 9.69381 33.9832C11.1675 34.2847 12.3398 34.5079 19.016 35.736C20.1883 35.9481 22.3653 36.4059 23.8725 36.7408C28.7402 37.8349 30.6939 38.2033 33.2617 38.5271C36.1533 38.8844 36.1533 38.8844 36.1533 38.0582C36.1533 37.7903 36.198 37.567 36.2426 37.567C36.6222 37.567 37.627 37.8572 37.7386 37.9912C37.9508 38.2368 37.9284 42.055 37.694 44.8238C37.5823 46.0854 37.4484 47.9945 37.3814 49.0662C37.2139 51.8573 36.7673 55.4857 36.3766 57.2832L36.2538 57.8526L35.5616 57.607L34.8694 57.3502L34.8359 56.8478C34.8136 56.5687 34.7354 56.2896 34.6684 56.2226C34.5903 56.1668 33.0719 55.7425 31.2968 55.2848C29.5105 54.827 27.0544 54.1683 25.8263 53.8222C24.5982 53.4873 22.6891 52.9514 21.5838 52.6388C17.721 51.5671 14.528 50.7186 12.0495 50.1157C9.40354 49.4682 9.24724 49.4682 9.24724 50.0264C9.24724 50.272 9.21375 50.2943 8.9458 50.2273C8.30943 50.071 8.1643 49.9706 8.09731 49.6579C8.06382 49.4905 7.80704 48.3852 7.52793 47.213C6.36684 42.2783 5.11643 34.9657 5.11643 33.1571V32.543H5.66349C5.95376 32.543 6.51198 32.5765 6.89156 32.61ZM10.9442 33.1571C14.3828 33.6706 15.5439 33.8604 19.8534 34.6084C21.8518 34.9545 24.9108 35.4792 26.6636 35.7807C30.0241 36.3501 31.9332 36.7073 34.3112 37.1651C35.115 37.3214 35.7737 37.4553 35.796 37.4553C35.8184 37.4553 35.8184 37.567 35.796 37.7009C35.7625 37.9466 35.729 37.9577 34.5903 37.9354C33.9428 37.9131 32.9715 37.8572 32.4132 37.7903C31.308 37.6563 27.166 36.8413 25.0559 36.3389C23.3143 35.9258 19.2617 35.0997 17.1181 34.7201C14.26 34.2288 9.24724 33.2687 8.55505 33.0901C8.3206 33.0343 8.13081 32.9338 8.13081 32.8779C8.13081 32.7328 8.008 32.7216 10.9442 33.1571ZM41.2554 41.9881C42.4053 42.323 43.3989 42.6467 43.4436 42.6914C43.4994 42.7472 43.265 43.3389 42.9189 44.02L42.3048 45.248L41.7466 45.3262C41.434 45.3708 40.6302 45.3374 39.938 45.2592L38.6988 45.1141L38.7657 44.7233C38.7992 44.5 38.8551 43.7185 38.8886 42.9817C38.9555 41.6643 39.0002 41.3628 39.1007 41.3628C39.123 41.3628 40.0943 41.642 41.2554 41.9881ZM41.0321 46.331L42.6174 46.3645L43.0752 46.7329C43.3208 46.9339 43.5218 47.146 43.5218 47.2241C43.5218 47.3469 42.3718 49.0774 41.5457 50.1938C40.619 51.4331 39.7482 52.8286 39.2235 53.8669C38.5425 55.229 37.7051 56.6803 37.6382 56.6245C37.6158 56.591 37.6382 56.2784 37.7051 55.9211C37.761 55.5527 37.8949 54.5814 37.9954 53.7553C38.0959 52.9291 38.1964 52.0918 38.2299 51.902C38.2522 51.7234 38.509 51.2433 38.7992 50.8414C39.3798 50.0487 39.9492 48.9993 39.9492 48.7201C39.9492 48.4634 39.7705 48.3517 39.0672 48.1173C38.4978 47.9275 38.4755 47.9163 38.5425 47.5925C38.576 47.4028 38.6094 47.0008 38.6094 46.6882V46.13L39.0337 46.2193C39.257 46.264 40.1613 46.3198 41.0321 46.331ZM39.1007 48.8541C39.2235 48.9658 39.0225 49.4682 38.6653 49.9036L38.3973 50.2385L38.3862 49.7808C38.3862 49.524 38.4197 49.1556 38.4531 48.9658C38.5201 48.6755 38.5648 48.6308 38.7657 48.6867C38.8886 48.7201 39.0449 48.7983 39.1007 48.8541ZM12.8198 50.9753C14.327 51.3438 16.2808 51.8462 17.1739 52.0918C20.6907 53.0631 22.1197 53.465 24.3749 54.0902C28.5615 55.2513 29.1421 55.4076 31.6206 56.044C32.9603 56.3789 34.0767 56.658 34.0991 56.658C34.1214 56.658 34.1437 56.7808 34.1437 56.9259V57.1939L33.2841 56.9706C32.804 56.8589 32.0113 56.6357 31.5201 56.4905C31.0289 56.3342 29.7226 55.9658 28.6174 55.6644C27.5121 55.3629 25.6253 54.8382 24.4307 54.5033C23.2362 54.1683 21.5727 53.7106 20.7465 53.4873C11.2122 50.953 10.0064 50.6069 9.93943 50.4283C9.9171 50.3501 9.93943 50.2943 9.99525 50.2943C10.0511 50.2943 11.3238 50.5958 12.8198 50.9753Z" fill="black"/>
<path d="M36.8566 20.2845C36.7673 20.9991 36.6222 21.5573 36.3877 22.0708C35.9635 22.9863 35.9412 23.5222 36.2984 23.8795C36.5217 24.1028 36.7227 24.1474 37.6605 24.2256L38.7657 24.3037L39.0895 23.9465C39.3575 23.645 39.4021 23.511 39.3463 23.1761C39.3128 22.9528 39.1788 22.696 39.056 22.5844C38.9332 22.4839 38.8327 22.35 38.8327 22.283C38.8327 22.082 38.6429 22.149 38.576 22.3723C38.5536 22.4951 38.6094 22.6514 38.7323 22.763C38.989 22.9752 39.0114 23.4217 38.7657 23.6227C38.6318 23.7343 38.4643 23.7343 37.9507 23.6339C37.6047 23.5557 37.1804 23.4999 37.0241 23.4999C36.6334 23.4999 36.5775 23.2096 36.8455 22.4839C37.1804 21.5684 37.2697 21.1665 37.2697 20.4297C37.2697 19.7263 37.1804 19.2574 37.0576 19.2574C37.0129 19.2574 36.9236 19.7263 36.8566 20.2845Z" fill="black"/>
<path d="M45.2522 27.5972C42.9524 28.9146 41.2889 29.5175 39.9045 29.5398C39.5249 29.5398 39.123 29.5845 39.0002 29.6291C38.6541 29.7743 39.5026 29.9752 40.4516 29.9752C41.4452 29.9752 42.3272 29.7519 43.4659 29.1937C44.3256 28.7806 45.9779 27.653 46.3017 27.2623C46.5696 26.9274 46.2124 27.039 45.2522 27.5972Z" fill="black"/>
<path d="M32.8822 28.4346C34.4563 30.5335 35.1374 31.2368 35.9747 31.6499C36.6445 31.9625 37.4149 31.9402 38.0401 31.5829L38.5425 31.3038L39.1677 31.5829C40.0832 31.996 41.1884 32.1411 42.383 31.996C43.3543 31.8732 44.5377 31.5494 45.0848 31.248C45.3304 31.114 45.3416 31.1029 45.1406 31.1029C45.0178 31.0917 44.5935 31.181 44.1916 31.2703C43.7116 31.3931 42.9524 31.4601 41.9588 31.4601C40.6525 31.4601 40.3623 31.4266 39.804 31.2145C39.4579 31.0805 39.0225 30.8461 38.8439 30.6898L38.5313 30.4218L38.3192 30.6563C38.0066 31.0024 37.3367 31.315 36.9236 31.315C36.2873 31.315 35.6286 30.8796 34.2554 29.5733C33.0719 28.4346 32.5696 28.0327 32.8822 28.4346Z" fill="black"/>
<path d="M51.5043 29.1044C51.3815 29.1714 50.332 29.8636 49.1598 30.6451C46.9827 32.0964 45.6207 32.9226 44.0018 33.7711C43.4883 34.039 43.0752 34.2958 43.0752 34.3516C43.0752 34.4633 43.0082 34.4745 43.8567 34.2177C45.8774 33.5813 49.0258 31.6387 51.2252 29.6626C51.828 29.1156 51.9508 28.87 51.5043 29.1044Z" fill="black"/>
<path d="M53.2124 29.6403C51.9174 29.9641 50.5441 31.0582 50.0418 32.1523C49.6733 32.9561 49.7515 33.1682 50.1869 32.5319C51.1805 31.114 52.5872 30.2543 54.1502 30.1204C55.021 30.0422 55.7021 30.2432 56.3943 30.7791C56.6734 31.0135 56.8073 31.0582 56.8073 30.9465C56.8073 30.6674 56.4054 30.2543 55.7914 29.9194C55.1439 29.5733 53.9939 29.4505 53.2124 29.6403Z" fill="black"/>
<path d="M48.7132 35.0327C47.273 36.9418 44.7833 39.1188 42.8854 40.1236C42.7403 40.1906 42.6286 40.3022 42.6286 40.3469C42.6286 40.6148 44.2028 39.9115 45.3416 39.1411C46.4357 38.4043 47.474 37.433 48.2555 36.417C48.8472 35.6355 49.4947 34.4298 49.4165 34.2288C49.3942 34.173 49.0816 34.5414 48.7132 35.0327Z" fill="black"/>
</svg>
