<svg width="250" height="60" viewBox="0 0 250 60" fill="none" xmlns="http://www.w3.org/2000/svg">
<path d="M73.1738 36.9843L80.3816 38.2552L80.0204 40.3036L72.8126 39.0327L73.1738 36.9843ZM75.0395 39.9534L77.6 40.4049L76.4984 46.6525L73.9379 46.201L75.0395 39.9534Z" fill="#E00303"/>
<path d="M77.9772 40.9138L78.0345 40.5888L80.0278 40.9403L81.9786 48.1201L81.476 48.8804L80.0677 48.6321L77.9772 40.9138ZM83.393 45.9904L83.3496 45.9827L82.3144 47.6097L81.7342 45.4522L84.1551 41.6681L86.2134 42.031L84.8992 49.484L82.8409 49.1211L83.393 45.9904ZM77.7881 41.9863L79.0326 46.5842L78.7136 48.3933L76.7204 48.0419L77.7881 41.9863Z" fill="white"/>
<path d="M0.288 17.984H18.304V23.104H0.288V17.984ZM6.08 24.384H12.48V40H6.08V24.384ZM20.6738 17.984H27.0738V40H20.6738V17.984ZM28.4178 17.984H36.5458V22.88H28.4178V17.984ZM28.4178 26.432H35.0417V31.328H28.4178V26.432ZM28.4178 35.104H36.5458V40H28.4178V35.104ZM38.6005 17.984H45.8645L59.8485 40H52.5525L38.6005 17.984ZM50.3125 22.464L52.7445 17.984H59.7525L53.6725 27.776L50.3125 22.464ZM44.6165 30.016L47.9445 35.296L45.4805 40H38.4725L44.6165 30.016Z" fill="#E00303"/>
<path d="M123.08 18.944V17.984H128.968L138.184 37.568L137.128 40H132.968L123.08 18.944ZM141.16 30.752H141.032L138.888 35.936L136.136 30.048L141.16 17.984H147.24V40H141.16V30.752ZM123.08 22.112L128.968 34.656V40H123.08V22.112ZM156.385 17.984H156.929L159.457 26.752L155.777 40H149.377L156.385 17.984ZM163.585 36.096H158.241L159.585 31.168H162.145L158.369 17.984H164.225L171.233 40H164.705L163.585 36.096ZM180.657 17.76C180.828 17.7387 181.095 17.728 181.457 17.728H182.289C183.719 17.728 185.116 17.8347 186.481 18.048C187.185 18.1547 187.729 18.2613 188.113 18.368V22.944C187.793 22.9227 187.26 22.8693 186.513 22.784C185.511 22.6773 184.636 22.624 183.889 22.624C183.057 22.624 182.385 22.656 181.873 22.72C181.383 22.7627 180.977 22.848 180.657 22.976V17.76ZM182.289 40.256C180.156 40.256 178.46 40.0747 177.201 39.712C175.964 39.328 175.025 38.6987 174.385 37.824C173.767 36.992 173.34 35.8933 173.105 34.528C172.892 33.1413 172.785 31.296 172.785 28.992C172.785 26.9653 172.86 25.3227 173.009 24.064C173.18 22.8053 173.479 21.7493 173.905 20.896C174.353 20.0213 175.004 19.3493 175.857 18.88C176.732 18.3893 177.884 18.0587 179.313 17.888V28.992C179.313 30.1867 179.335 31.3387 179.377 32.448C179.42 33.3013 179.58 33.9413 179.857 34.368C180.156 34.7947 180.615 35.0613 181.233 35.168C181.831 35.296 182.716 35.36 183.889 35.36C185.105 35.36 186.14 35.3067 186.993 35.2C187.335 35.1787 187.751 35.1253 188.241 35.04V39.68C187.196 39.9147 186.012 40.0747 184.689 40.16C183.964 40.224 183.164 40.256 182.289 40.256ZM189.757 17.984H207.773V23.104H189.757V17.984ZM195.549 24.384H201.949V40H195.549V24.384ZM210.143 17.984H216.543V40H210.143V17.984ZM217.887 17.984H226.015V22.88H217.887V17.984ZM217.887 26.432H224.51V31.328H217.887V26.432ZM217.887 35.104H226.015V40H217.887V35.104ZM229.861 17.984H236.261V40H229.861V17.984ZM237.605 28.256H238.373C239.056 28.256 239.557 28.2347 239.877 28.192C240.219 28.128 240.485 28 240.677 27.808C240.869 27.6373 240.987 27.392 241.029 27.072C241.093 26.7307 241.125 26.2293 241.125 25.568C241.125 24.9067 241.093 24.416 241.029 24.096C240.987 23.7547 240.869 23.488 240.677 23.296C240.485 23.1253 240.219 23.0187 239.877 22.976C239.536 22.912 239.035 22.88 238.373 22.88H237.605V17.984H240.261C241.84 17.984 243.12 18.144 244.101 18.464C245.104 18.7627 245.861 19.232 246.373 19.872C246.864 20.4693 247.195 21.2267 247.365 22.144C247.536 23.04 247.621 24.1813 247.621 25.568C247.621 26.8907 247.536 27.9893 247.365 28.864C247.216 29.7387 246.907 30.4747 246.437 31.072C245.904 31.7547 245.136 32.2773 244.133 32.64C243.152 32.9813 241.861 33.152 240.261 33.152H237.605V28.256Z" fill="white"/>
<path d="M100.508 0.190301C98.377 0.653113 96.7328 1.57874 94.9302 3.33255C94.3456 3.8928 93.6636 4.55048 93.42 4.78189C92.7867 5.37867 92.4822 6.3043 92.3361 7.93632C92.1899 9.7145 92.3117 17.2656 92.5431 19.872C92.6405 21.0047 92.7136 21.9668 92.7136 22.0034C92.7136 22.0399 92.2021 22.0643 91.5931 22.0643C90.5944 22.0643 90.3874 22.1008 89.8271 22.4053C88.5483 23.0752 87.2208 24.561 85.065 27.7276C84.59 28.434 83.6401 29.6398 82.958 30.4071C82.2882 31.1744 81.5939 32.0391 81.4234 32.3192C81.1798 32.7333 81.0702 32.8308 80.8632 32.782C80.2177 32.6237 73.0563 31.4423 69.4512 30.8943C67.2711 30.5532 65.1397 30.2 64.7013 30.1026C63.7026 29.8834 61.7174 29.7372 61.1206 29.8468C60.4142 29.9808 60.1949 30.2853 60.1949 31.1013C60.1949 33.7686 61.9244 43.7069 63.4346 49.7112C63.7391 50.9292 63.8244 51.0875 64.3846 51.2824C65.1641 51.5747 68.7448 52.6099 71.7653 53.4137C73.2755 53.8157 75.7722 54.4855 77.3068 54.8874C78.8536 55.3015 82.2516 56.2393 84.858 56.9701C87.4765 57.7008 90.6553 58.5778 91.922 58.9188C93.2008 59.2598 94.4796 59.6373 94.7719 59.7713C95.6366 60.1489 95.9289 60.088 96.6962 59.3694C97.6706 58.4438 98.2187 57.6643 99.3026 55.606C100.447 53.4503 100.898 52.7317 102.615 50.3446C103.334 49.3459 104.016 48.3715 104.126 48.1766C104.369 47.7626 104.345 47.7626 105.721 48.2497C107.219 48.7734 108.705 49.017 112.115 49.285C115.525 49.5407 116.256 49.5164 117.45 49.1023C119.654 48.3228 120.543 46.6177 120.531 43.1953C120.519 42.2941 120.507 39.505 120.507 37.0083C120.482 32.5141 120.361 30.809 119.983 29.5545C119.021 26.3879 117.206 24.6585 113.638 23.5136C112.822 23.2578 112.566 23.1117 112.517 22.9168C112.395 22.454 111.725 21.5649 111.202 21.1874C110.788 20.8951 110.642 20.688 110.532 20.2617C110.447 19.9573 110.252 19.5553 110.093 19.3727L109.801 19.0438L110.264 18.374C111.092 17.1926 111.506 15.7067 111.226 14.8785C111.141 14.6349 110.922 14.2574 110.739 14.0381L110.398 13.6484L110.568 12.6862C111.445 7.81453 111.506 6.97416 111.104 5.6588C110.836 4.76971 110.3 4.17292 109.582 3.91716C109.18 3.78319 109.083 3.67357 108.888 3.13769C108.401 1.8345 107 0.738368 105.197 0.251197C104.053 -0.0532848 101.751 -0.0898226 100.508 0.190301ZM105.197 1.43259C106.598 1.85886 107.463 2.62616 107.877 3.81973C108.023 4.22164 108.023 4.29472 107.84 4.42869C107.548 4.6601 107.451 4.62356 107.451 4.246C107.451 4.06331 107.341 3.69793 107.219 3.42999C106.72 2.35821 105.66 1.77361 104.04 1.68835C102.822 1.62746 102.847 1.77361 104.101 2.07809C105.977 2.5409 107.061 3.57614 106.793 4.64792C106.695 5.03765 106.537 4.9524 106.44 4.47741C106.342 3.99024 105.672 3.25948 105.076 2.99153C104.686 2.80885 104.272 2.76013 102.92 2.76013C101.994 2.76013 101.239 2.80885 101.239 2.86974C101.239 3.02807 101.665 3.11333 103.042 3.2473C104.467 3.38127 105.222 3.64922 105.599 4.1851C105.977 4.72099 106.026 5.07419 105.77 5.54918C105.478 6.08507 105.258 6.17033 105.258 5.74405C105.258 5.11073 104.649 4.35561 103.797 3.90498C103.468 3.73447 102.956 3.67357 101.483 3.61268C100.447 3.56396 99.5706 3.5396 99.5584 3.56396C99.534 3.57614 99.6558 3.68575 99.8263 3.79537C99.9968 3.91716 100.581 4.05113 101.142 4.11203C102.822 4.29472 103.541 4.44087 103.821 4.63574C104.077 4.81843 104.065 4.83061 103.37 4.85496C100.849 4.91586 100.301 4.92804 100.082 4.91586C99.2782 4.90368 98.0481 4.96458 96.8546 5.07419C96.7571 5.08637 96.3187 5.04983 95.8802 4.98894L95.0886 4.8915L96.1238 3.84408C96.9885 2.97936 97.3417 2.72359 98.3161 2.2486C100.703 1.10375 103.163 0.799265 105.197 1.43259ZM109.399 5.1838C110.508 5.96328 110.471 7.77799 109.217 13.7824C109.18 13.9285 108.961 14.1112 108.668 14.233C108.401 14.3426 108.181 14.4279 108.181 14.4157C108.181 14.4035 108.267 14.1721 108.364 13.9042C108.461 13.6362 108.535 13.1978 108.535 12.9298V12.4427L108.12 13.2952C107.901 13.758 107.585 14.3061 107.414 14.5009L107.122 14.8663L107.183 13.624C107.243 12.2356 107.085 11.9555 106.878 13.1003C106.659 14.2452 106.22 15.792 106.099 15.792C106.038 15.792 105.989 15.2317 105.989 14.5375C105.989 12.6497 105.538 10.494 104.966 9.67796C104.771 9.41001 104.771 9.41001 104.771 9.82411C104.771 10.0555 104.832 10.4696 104.893 10.7376C104.954 11.0055 104.978 11.2491 104.942 11.2856C104.82 11.3952 103.797 10.1286 103.663 9.69014C103.541 9.28822 103.553 9.21514 103.931 8.67926C104.296 8.16773 104.369 8.11901 104.698 8.19209C105.879 8.44785 106.306 8.8863 106.61 10.1408C106.732 10.6523 106.866 11.1029 106.902 11.1395C106.939 11.176 106.963 10.7863 106.963 10.2626C106.963 8.81323 106.586 8.20426 105.453 7.76581C104.954 7.58312 104.905 7.5344 105.076 7.38825C105.173 7.303 105.526 7.20556 105.843 7.18121C106.561 7.12031 107.073 7.41261 107.475 8.10683C107.986 9.0081 108.12 8.6549 107.633 7.66838C107.402 7.20556 107.195 6.98634 106.781 6.76711C106.172 6.43827 106.257 6.29212 107.061 6.29212C107.779 6.29212 107.999 6.43827 108.254 7.08377C108.461 7.64402 108.461 8.20426 108.23 10.0677C108.133 10.9202 108.315 10.7863 108.668 9.76321C108.997 8.83759 109.107 7.60748 108.924 6.93762C108.778 6.42609 108.096 5.68315 107.755 5.68315C107.658 5.68315 107.572 5.62226 107.572 5.56136C107.572 5.32996 108.035 5.43957 108.413 5.74405C108.754 6.04853 108.961 6.51135 109.277 7.74145C109.448 8.39913 109.643 8.21644 109.643 7.41261C109.643 6.48699 109.399 5.80495 108.876 5.28124L108.388 4.79407L108.742 4.87932C108.936 4.92804 109.229 5.06201 109.399 5.1838ZM100.289 6.03635C100.581 6.34084 100.813 6.75493 100.935 7.19338C101.044 7.57094 101.19 7.85107 101.251 7.81453C101.446 7.68056 101.361 6.62096 101.117 6.06071C100.983 5.76841 100.874 5.51264 100.874 5.48829C100.874 5.37867 101.641 5.45175 102.006 5.61008C102.542 5.84149 102.798 6.15815 102.859 6.69403C102.92 7.26646 103.005 7.35172 103.188 7.0107C103.285 6.84019 103.31 6.48699 103.273 6.08507C103.212 5.48829 103.224 5.43957 103.456 5.43957C104.089 5.43957 104.32 6.13379 104.04 7.14467C103.882 7.72927 102.774 8.9472 102.153 9.22732C101.3 9.61706 98.1578 9.44655 96.2334 8.91066C95.0764 8.594 94.6379 8.63054 93.8463 9.11771L93.4444 9.3613L93.4566 8.52093C93.4566 7.52223 93.5783 6.77929 93.7489 6.74275C93.8219 6.73057 93.9803 6.9498 94.1142 7.22992C94.2482 7.52223 94.3944 7.75363 94.4431 7.75363C94.6136 7.75363 94.5527 6.90108 94.3578 6.5357C94.1751 6.19468 94.1873 6.17033 94.4065 6.17033C94.7354 6.17033 95.2834 6.6575 95.9777 7.54658C96.3674 8.07029 96.5623 8.2408 96.5866 8.09465C96.6475 7.75363 96.0264 6.60878 95.4905 6.04853L94.9668 5.537L95.5757 5.62226C96.3187 5.71969 96.7571 5.93892 97.086 6.36519C97.3417 6.69403 97.3539 6.73057 97.5853 7.60748C97.6584 7.8876 97.768 8.09465 97.8289 8.05811C98.0481 7.92414 97.9629 6.73057 97.7071 6.23122C97.4026 5.63444 97.4026 5.56136 97.7071 5.56136C98.4013 5.56136 99.2174 6.35301 99.6558 7.46133C99.9968 8.33824 100.143 8.52093 100.143 8.08247C100.143 7.21774 99.5949 5.68315 99.2782 5.68315C99.2174 5.68315 99.1686 5.62226 99.1686 5.54918C99.1686 5.28124 99.8385 5.57354 100.289 6.03635ZM96.0629 9.62924C98.3648 10.4087 101.251 10.5183 102.725 9.88501C102.883 9.82411 102.969 9.87283 103.054 10.1042C103.127 10.2747 103.529 10.8106 103.967 11.2734C105.088 12.5035 105.27 13.0516 105.38 15.4266C105.465 17.3387 105.538 17.7406 105.782 17.7406C105.867 17.7406 106.233 17.3996 106.598 16.9855C107.792 15.6458 108.352 15.1221 108.949 14.8176L109.533 14.5131L109.85 14.8663C110.106 15.1708 110.142 15.317 110.106 15.7798C110.033 16.4862 109.497 17.6188 108.985 18.1669C108.327 18.8489 108.267 18.6541 108.851 17.8015C109.777 16.4496 109.85 15.5484 109.046 15.3413C108.461 15.1952 107.926 15.6336 107.414 16.6689C106.732 18.0329 106.878 18.2765 107.67 17.0951C108.681 15.6093 109.351 15.6214 108.559 17.0951C108.035 18.0695 107.548 18.5688 106.988 18.6663C106.744 18.715 106.427 18.8124 106.294 18.8855C106.086 18.9951 106.147 19.0316 106.72 19.0804L107.39 19.1413L106.732 19.4823C106.379 19.6771 105.867 19.872 105.587 19.9085C105.088 19.9938 105.088 20.006 104.893 20.7855C104.649 21.8207 104.174 22.6245 103.249 23.538C101.531 25.2674 98.6327 26.4732 97.0251 26.1443C95.8924 25.9008 94.9546 24.829 94.1873 22.8803C93.7732 21.8329 93.5662 19.4214 93.4931 14.8176C93.42 10.7376 93.4322 10.6036 93.6758 10.226C93.9194 9.83629 94.6745 9.34912 95.0277 9.34912C95.1251 9.33694 95.6001 9.47091 96.0629 9.62924ZM109.192 20.1034C109.302 20.2496 109.424 20.6028 109.472 20.8585C109.533 21.163 109.692 21.4431 109.923 21.638C110.824 22.3931 111.336 22.9534 111.421 23.2822C111.494 23.5989 111.445 23.6841 110.97 24.1104C108.425 26.3879 106.501 27.4841 103.858 28.1539L102.762 28.434L103.504 28.4462C105.587 28.4706 108.023 27.3135 110.897 24.9508L111.847 24.1713L113.224 24.6097C116.281 25.6084 118.01 27.2161 118.838 29.8347C119.155 30.8334 119.423 32.7577 119.362 33.5737L119.325 34.1218L119.021 33.6346C118.607 32.9647 117.827 32.1244 117.413 31.9173C117.011 31.7103 116.963 31.8564 117.328 32.1853C117.779 32.5994 118.631 34.1096 118.972 35.0961C119.264 35.9608 119.289 36.2288 119.277 37.5563C119.264 38.5916 119.191 39.1883 119.07 39.505C118.412 41.064 116.865 42.6107 115.391 43.1466C114.515 43.4754 114.478 43.5972 115.282 43.5242C115.672 43.4876 116.281 43.3049 116.658 43.1223C117.328 42.7934 118.448 41.7947 118.984 41.064L119.252 40.6986V41.5024C119.264 42.2453 119.228 42.3671 118.765 43.0857C117.462 45.0953 116.366 46.1184 115.489 46.1184C115.16 46.1184 114.916 46.0087 114.539 45.6799C113.991 45.2049 113.881 45.3145 114.271 45.9357C114.551 46.3863 115.16 46.7273 115.684 46.7273C116.512 46.7273 118.059 45.4485 118.838 44.1088C119.021 43.8043 119.191 43.5607 119.228 43.5607C119.264 43.5607 119.264 44.0235 119.228 44.5959C119.106 46.3132 118.509 47.2754 117.17 47.8965C116.402 48.2497 116.39 48.2497 114.332 48.2132C113.199 48.1888 111.799 48.1401 111.226 48.0914C110.057 47.994 110.154 48.1401 110.325 46.7639C110.398 46.2036 110.24 44.6812 110.057 44.0113C109.899 43.4876 109.765 44.0479 109.765 45.2049C109.765 46.5446 109.594 47.6042 109.363 47.8113C109.265 47.8843 108.876 47.8722 108.193 47.7504C106.22 47.4094 104.442 46.6177 103.553 45.7043L103.139 45.2658L103.833 43.8652L104.528 42.4646H105.051C105.331 42.4646 106.403 42.5985 107.426 42.7691C108.449 42.9396 109.338 43.0735 109.411 43.0735C109.472 43.0735 109.594 42.9152 109.655 42.7203C109.813 42.2697 110.191 42.1966 111.263 42.3915C112.188 42.5742 112.188 42.562 111.896 41.7216C111.713 41.2101 111.616 39.8338 111.75 39.6999C111.786 39.6633 111.933 39.8582 112.054 40.114C112.554 41.0761 114.149 42.903 114.149 42.5133C114.149 42.4646 113.857 41.9287 113.491 41.3197C111.92 38.6646 111.933 38.7377 112.152 35.7294C112.347 32.9282 112.578 31.7955 113.236 30.5045C113.479 30.0295 113.65 29.6154 113.613 29.5789C113.467 29.4449 112.578 30.5411 112.213 31.284C111.713 32.3192 111.421 33.6833 111.117 36.3871C110.97 37.6294 110.8 38.8351 110.739 39.0666C110.666 39.2858 110.617 39.846 110.617 40.2845V41.0883L110.069 41.1492C109.752 41.1857 109.351 41.3441 109.119 41.5268C108.766 41.7947 108.644 41.8191 108.23 41.7338C107.974 41.6851 107.536 41.5998 107.28 41.5511L106.805 41.478L107.438 41.1857C108.364 40.7595 109.119 40.1992 109.46 39.6999C109.618 39.4563 109.74 39.2371 109.716 39.2127C109.704 39.1883 109.265 39.4441 108.766 39.7851C107.718 40.4915 106.513 40.9422 105.197 41.1492C104.333 41.2832 104.235 41.271 103.346 40.9665C102.822 40.796 101.519 40.3941 100.46 40.0896C99.3879 39.7973 98.4744 39.4806 98.4135 39.3954C98.3404 39.2736 98.2917 38.2262 98.3161 37.264C98.3161 37.2153 98.511 37.1909 98.7424 37.2153C99.3026 37.2518 99.2782 37.1544 98.6936 36.9108C98.3404 36.7768 98.2065 36.6429 98.1578 36.3871C98.0847 36.0217 97.6097 35.766 97.0373 35.766C96.6841 35.766 95.2469 34.2679 94.4796 33.0987C94.1751 32.6115 93.688 31.7468 93.42 31.1622C92.8719 29.993 92.7136 29.993 93.0181 31.15C93.3104 32.3314 93.7976 33.2936 94.6379 34.4141C95.2713 35.2544 95.3565 35.4128 95.1251 35.3641C94.9668 35.3275 93.6392 35.0596 92.1656 34.7794C90.6919 34.4993 89.4739 34.2557 89.4496 34.2436C89.3278 34.1339 89.7419 33.6833 90.2169 33.391C91.2521 32.7942 91.4226 32.1731 91.0816 30.2244C90.9842 29.6885 90.8745 28.5071 90.8258 27.6059C90.7284 25.6572 90.631 25.1822 90.5092 26.1443C90.3508 27.3866 90.3996 29.5789 90.5944 30.7116C90.838 32.0756 90.7528 32.3314 89.8271 32.9647C89.4739 33.1961 89.1086 33.5615 88.9989 33.7807C88.8284 34.1339 88.7675 34.1705 88.4143 34.0974C87.6714 33.9513 87.5374 33.8538 87.3182 33.257C86.9406 32.1974 86.7458 30.9795 86.7458 29.6398C86.7458 28.9212 86.6971 28.3366 86.6362 28.3366C86.49 28.3366 86.2586 29.6033 86.2586 30.4802C86.2586 31.2718 86.5022 32.782 86.7336 33.3788C86.8188 33.5737 86.8554 33.7442 86.8432 33.7564C86.8188 33.7807 85.881 33.6346 84.7362 33.4397C83.6035 33.2449 82.5926 33.0865 82.5074 33.0865C82.2516 33.0865 82.6292 32.5141 83.7131 31.284L84.7118 30.1391L84.9189 30.943C85.1137 31.7346 85.4548 32.3558 85.7471 32.4532C85.8445 32.4776 85.7958 32.2583 85.6375 31.8442C85.4426 31.3936 85.3695 30.9186 85.3573 30.2853L85.3452 29.3718L86.5996 27.5206C88.5605 24.6341 89.7297 23.5136 91.0207 23.2335C91.8611 23.0508 92.7136 23.2578 92.7136 23.6354C92.7136 23.7816 92.7989 24.22 92.8963 24.6219C93.3469 26.3514 94.3578 27.7155 95.6123 28.3001C96.4405 28.6898 96.6962 28.6046 95.9777 28.1783C94.8694 27.5328 93.7123 25.8642 93.5053 24.6219L93.4322 24.1348L93.7732 24.7924C94.2726 25.7546 95.0642 26.5706 95.8559 26.9603C96.4892 27.2648 96.6597 27.3014 97.768 27.2892C99.1808 27.2648 100.399 26.9238 101.726 26.1809C102.165 25.9373 103.042 25.4745 103.675 25.1335C104.308 24.8046 105.088 24.3418 105.404 24.1104C106.196 23.538 107.073 22.5393 107.353 21.8938C107.706 21.0534 107.56 20.8829 107.134 21.638C106.915 22.0034 106.513 22.5271 106.22 22.8072C105.672 23.3066 104.783 23.9521 104.637 23.9521C104.588 23.9521 104.783 23.5989 105.076 23.1604C105.368 22.722 105.733 22.0399 105.879 21.638C106.123 20.956 106.172 20.9072 106.708 20.7246C107.012 20.6271 107.548 20.3714 107.877 20.1765C108.62 19.738 108.949 19.7137 109.192 20.1034ZM63.3494 31.2109L64.0923 31.2962V31.759C64.0923 32.1487 64.141 32.234 64.3724 32.2949C64.5186 32.3192 65.432 32.5141 66.4064 32.709C68.014 33.0378 69.2929 33.2814 76.5761 34.6211C77.8549 34.8525 80.2299 35.3519 81.8741 35.7172C87.1842 36.9108 89.3156 37.3127 92.1168 37.6659C95.2713 38.0557 95.2713 38.0557 95.2713 37.1544C95.2713 36.8621 95.32 36.6185 95.3687 36.6185C95.7828 36.6185 96.8789 36.9352 97.0007 37.0813C97.2321 37.3493 97.2078 41.5146 96.952 44.535C96.8302 45.9113 96.6841 47.994 96.611 49.1632C96.4283 52.208 95.9411 56.1663 95.5149 58.1271L95.3809 58.7483L94.6258 58.4803L93.8706 58.2002L93.8341 57.6521C93.8098 57.3476 93.7245 57.0432 93.6514 56.9701C93.5662 56.9092 91.9098 56.4464 89.9733 55.947C88.0246 55.4477 85.3452 54.7291 84.0054 54.3515C82.6657 53.9862 80.5831 53.4016 79.3773 53.0605C75.1633 51.8913 71.68 50.9657 68.9762 50.308C66.0897 49.6016 65.9192 49.6016 65.9192 50.2106C65.9192 50.4785 65.8827 50.5029 65.5904 50.4298C64.8961 50.2593 64.7378 50.1497 64.6647 49.8087C64.6282 49.626 64.3481 48.4202 64.0436 47.1414C62.777 41.7582 61.4129 33.7807 61.4129 31.8077V31.1378H62.0097C62.3263 31.1378 62.9353 31.1744 63.3494 31.2109ZM67.7705 31.8077C71.5217 32.3679 72.7883 32.575 77.4895 33.391C79.6696 33.7686 83.0067 34.341 84.9189 34.6698C88.5848 35.291 90.6675 35.6807 93.2617 36.1801C94.1386 36.3506 94.8572 36.4967 94.8815 36.4967C94.9059 36.4967 94.9059 36.6185 94.8815 36.7647C94.845 37.0326 94.8085 37.0448 93.5662 37.0204C92.8598 36.9961 91.8002 36.9352 91.1912 36.8621C89.9855 36.716 85.4669 35.8269 83.1651 35.2788C81.2651 34.8282 76.844 33.9269 74.5056 33.5128C71.3877 32.9769 65.9192 31.9295 65.1641 31.7346C64.9083 31.6737 64.7013 31.5641 64.7013 31.5032C64.7013 31.3449 64.5673 31.3327 67.7705 31.8077ZM100.837 41.4415C102.092 41.8069 103.176 42.1601 103.224 42.2088C103.285 42.2697 103.029 42.9152 102.652 43.6581L101.982 44.9979L101.373 45.0831C101.032 45.1318 100.155 45.0953 99.4 45.01L98.0481 44.8517L98.1212 44.4254C98.1578 44.1818 98.2187 43.3293 98.2552 42.5255C98.3283 41.0883 98.377 40.7595 98.4866 40.7595C98.511 40.7595 99.5706 41.064 100.837 41.4415ZM100.594 46.1792L102.323 46.2158L102.822 46.6177C103.09 46.8369 103.31 47.0683 103.31 47.1536C103.31 47.2876 102.055 49.1754 101.154 50.3933C100.143 51.7452 99.193 53.2676 98.6206 54.4003C97.8776 55.8861 96.9642 57.4694 96.8911 57.4085C96.8668 57.372 96.8911 57.031 96.9642 56.6412C97.0251 56.2393 97.1712 55.1797 97.2808 54.2785C97.3905 53.3772 97.5001 52.4638 97.5366 52.2567C97.561 52.0618 97.8411 51.5381 98.1578 51.0997C98.7911 50.2349 99.4122 49.0901 99.4122 48.7856C99.4122 48.5055 99.2174 48.3837 98.4501 48.1279C97.8289 47.9209 97.8046 47.9087 97.8776 47.5555C97.9142 47.3485 97.9507 46.91 97.9507 46.569V45.96L98.4135 46.0575C98.6571 46.1062 99.6436 46.1671 100.594 46.1792ZM98.4866 48.9318C98.6206 49.0536 98.4013 49.6016 98.0116 50.0766L97.7193 50.442L97.7071 49.9426C97.7071 49.6625 97.7437 49.2606 97.7802 49.0536C97.8533 48.7369 97.902 48.6882 98.1212 48.7491C98.2552 48.7856 98.4257 48.8709 98.4866 48.9318ZM69.8166 51.2458C71.4608 51.6477 73.5922 52.1958 74.5665 52.4638C78.403 53.5234 79.9619 53.9618 82.4221 54.6438C86.9894 55.9105 87.6227 56.081 90.3265 56.7752C91.788 57.1406 93.0059 57.4451 93.0303 57.4451C93.0546 57.4451 93.079 57.5791 93.079 57.7374V58.0297L92.1412 57.7861C91.6175 57.6643 90.7528 57.4207 90.2169 57.2624C89.681 57.0919 88.256 56.69 87.0503 56.3611C85.8445 56.0323 83.7862 55.4599 82.483 55.0945C81.1798 54.7291 79.3651 54.2298 78.4639 53.9862C68.0628 51.2215 66.7474 50.8439 66.6743 50.649C66.65 50.5638 66.6743 50.5029 66.7352 50.5029C66.7961 50.5029 68.1846 50.8317 69.8166 51.2458Z" fill="#AAAAAA"/>
<path d="M96.0386 17.765C95.9411 18.5445 95.7828 19.1534 95.527 19.7137C95.0642 20.7124 95.0399 21.297 95.4296 21.6867C95.6732 21.9303 95.8924 21.979 96.9155 22.0643L98.1212 22.1495L98.4744 21.7598C98.7667 21.431 98.8154 21.2848 98.7545 20.9194C98.718 20.6758 98.5719 20.3957 98.4379 20.2739C98.3039 20.1643 98.1943 20.0182 98.1943 19.9451C98.1943 19.7259 97.9873 19.7989 97.9142 20.0425C97.8898 20.1765 97.9507 20.347 98.0847 20.4688C98.3648 20.7002 98.3892 21.1874 98.1212 21.4066C97.9751 21.5284 97.7924 21.5284 97.2321 21.4188C96.8546 21.3335 96.3918 21.2726 96.2213 21.2726C95.795 21.2726 95.7341 20.956 96.0264 20.1643C96.3918 19.1656 96.4892 18.7272 96.4892 17.9233C96.4892 17.156 96.3918 16.6445 96.2578 16.6445C96.2091 16.6445 96.1116 17.156 96.0386 17.765Z" fill="#AAAAAA"/>
<path d="M105.197 25.7424C102.688 27.1796 100.874 27.8373 99.3635 27.8616C98.9494 27.8616 98.511 27.9103 98.377 27.9591C97.9994 28.1174 98.9251 28.3366 99.9603 28.3366C101.044 28.3366 102.006 28.093 103.249 27.4841C104.187 27.0334 105.989 25.8033 106.342 25.377C106.635 25.0117 106.245 25.1335 105.197 25.7424Z" fill="#AAAAAA"/>
<path d="M91.7027 26.6559C93.42 28.9456 94.163 29.7129 95.0764 30.1635C95.8072 30.5045 96.6475 30.4802 97.3296 30.0904L97.8776 29.786L98.5597 30.0904C99.5584 30.5411 100.764 30.6994 102.067 30.5411C103.127 30.4071 104.418 30.0539 105.015 29.7251C105.283 29.5789 105.295 29.5667 105.076 29.5667C104.942 29.5545 104.479 29.652 104.04 29.7494C103.517 29.8834 102.688 29.9565 101.605 29.9565C100.18 29.9565 99.8629 29.9199 99.2539 29.6885C98.8763 29.5424 98.4014 29.2866 98.2065 29.1161L97.8655 28.8238L97.6341 29.0796C97.293 29.4571 96.5623 29.7981 96.1116 29.7981C95.4174 29.7981 94.6989 29.3231 93.2008 27.8982C91.9098 26.6559 91.3617 26.2174 91.7027 26.6559Z" fill="#AAAAAA"/>
<path d="M112.018 27.3866C111.884 27.4597 110.739 28.2148 109.46 29.0673C107.085 30.6507 105.599 31.5519 103.833 32.4775C103.273 32.7698 102.822 33.05 102.822 33.1109C102.822 33.2327 102.749 33.2448 103.675 32.9647C105.879 32.2705 109.314 30.1513 111.713 27.9956C112.371 27.3988 112.505 27.1308 112.018 27.3866Z" fill="#AAAAAA"/>
<path d="M113.881 27.9712C112.468 28.3244 110.97 29.518 110.422 30.7116C110.02 31.5885 110.106 31.8199 110.581 31.1257C111.665 29.5789 113.199 28.6411 114.904 28.4949C115.854 28.4097 116.597 28.6289 117.352 29.2135C117.657 29.4693 117.803 29.518 117.803 29.3962C117.803 29.0917 117.364 28.6411 116.695 28.2757C115.988 27.8981 114.734 27.7642 113.881 27.9712Z" fill="#AAAAAA"/>
<path d="M108.973 33.8538C107.402 35.9365 104.686 38.3114 102.615 39.4076C102.457 39.4806 102.335 39.6024 102.335 39.6512C102.335 39.9435 104.053 39.1762 105.295 38.3358C106.488 37.532 107.621 36.4724 108.474 35.364C109.119 34.5115 109.826 33.1961 109.74 32.9769C109.716 32.916 109.375 33.3179 108.973 33.8538Z" fill="#AAAAAA"/>
</svg>
