<svg xmlns="http://www.w3.org/2000/svg" width="13" height="13"><path d="M4.063 6.5H2.438V4.875h1.624zm3.25-1.625H5.688V6.5h1.625zm3.25 0H8.937V6.5h1.626zm-6.5 2.438H2.438v1.625h1.624zm3.25 0H5.688v1.625h1.625zm3.25 0H8.937v1.625h1.626zm-6.5 2.437H2.438v1.625h1.624zm3.25 0H5.688v1.625h1.625zM3.25 2.437c.45 0 .813-.363.813-.812V.812a.812.812 0 10-1.625 0v.813c0 .45.363.813.812.813zM13 1.625V13H0V1.625h2.031A1.22 1.22 0 003.25 2.844a1.22 1.22 0 001.219-1.219H8.53a1.22 1.22 0 001.22 1.219 1.22 1.22 0 001.219-1.219zm-.813 2.438H.813v8.125h11.374zM9.75 2.438c.45 0 .813-.364.813-.813V.812a.812.812 0 10-1.626 0v.813c0 .45.364.813.813.813zm0 0" fill="#9a9a9a" id="surface1"/></svg>