<svg width="20" height="20" viewBox="0 0 20 20" fill="none" xmlns="http://www.w3.org/2000/svg">
<path d="M19.6416 15.9536C19.5491 15.8575 19.4534 15.7582 19.3369 15.6685C18.1869 14.7828 16.9287 13.9705 15.4905 13.1851C15.2589 13.0586 15.0759 12.9588 14.8701 12.9588C14.5953 12.9588 14.4061 13.1307 14.1665 13.3484C13.9005 13.5902 13.6431 13.8335 13.397 14.0755C13.2618 14.2084 13.1299 14.3409 13.0021 14.4726C12.9689 14.5067 12.9347 14.535 12.8989 14.5593C12.7739 14.6443 12.6278 14.6715 12.4214 14.6535C11.882 14.6059 11.3365 14.4458 10.7539 14.1644C9.74952 13.6791 8.82672 12.9452 7.93279 11.921C6.82514 10.6517 6.062 9.3419 5.59971 7.9166L5.55738 7.78706C5.4982 7.60686 5.43117 7.40258 5.44425 7.359C5.45238 7.33165 5.4952 7.28108 5.5571 7.2175C5.62707 7.14549 5.72155 7.05671 5.8191 6.96515L5.85464 6.93182C5.92264 6.8679 5.99261 6.8046 6.06317 6.74169C6.22444 6.5979 6.39016 6.45659 6.5523 6.31872C6.72116 6.17519 6.89575 6.02675 7.06535 5.87521C7.46895 5.51447 7.55442 5.30661 7.26531 4.78708C6.70717 3.78417 6.07451 2.64746 5.40697 1.54203C5.21113 1.21786 4.97198 0.927635 4.74078 0.646935C4.64083 0.525568 4.53743 0.40009 4.44145 0.276213C4.37574 0.191368 4.27442 0.141724 4.16706 0.141724H4.05557C3.9734 0.141724 3.89393 0.170879 3.83121 0.223957C2.74215 1.14632 1.8611 2.26361 1.009 3.3441L0.847529 3.54872C0.686751 3.75226 0.540351 3.96525 0.398796 4.17117C0.334818 4.2642 0.270851 4.35728 0.205662 4.44935C0.164107 4.50799 0.141785 4.57811 0.141785 4.64999V4.94719C0.141785 4.97117 0.144262 4.99505 0.149196 5.01849C0.174329 5.13825 0.197818 5.25845 0.221362 5.37865C0.273562 5.64578 0.327618 5.92201 0.399862 6.19466C0.785885 7.6509 1.42553 9.05231 2.3553 10.4791C4.33572 13.5179 6.82673 16.0415 9.75922 17.9798C11.11 18.8726 12.4228 19.4406 13.7726 19.7162C13.9622 19.755 14.1527 19.7848 14.3369 19.8135C14.4203 19.8266 14.5038 19.8396 14.5871 19.8535C14.6059 19.8566 14.625 19.8582 14.6441 19.8582H15.35C15.4087 19.8582 15.4665 19.8433 15.518 19.8148C16.9316 19.0332 18.164 18.0535 19.1831 17.1983C19.3318 17.0736 19.4629 16.9376 19.5898 16.8061C19.6447 16.7492 19.6995 16.6923 19.7555 16.6368C19.8212 16.5716 19.8582 16.4828 19.8582 16.3902V16.316C19.8582 16.2224 19.8205 16.1327 19.7534 16.0674C19.7154 16.0303 19.6785 15.992 19.6416 15.9536ZM4.07591 0.931201C4.11915 0.984224 4.16235 1.03668 4.20492 1.0884C4.43025 1.36187 4.64304 1.62025 4.8127 1.90098C5.47384 2.9958 6.10331 4.12685 6.65864 5.12466C6.68696 5.1756 6.70857 5.21623 6.72329 5.24645C6.68686 5.28229 6.63539 5.32823 6.60265 5.35749C6.4395 5.50336 6.26821 5.64893 6.10258 5.78976C5.92727 5.93882 5.74765 6.09171 5.57136 6.24983L2.23771 2.91617C2.80597 2.21669 3.40416 1.5309 4.07591 0.931201ZM15.2598 19.1639H14.6726C14.5965 19.1514 14.5203 19.1395 14.4441 19.1276C14.2596 19.0987 14.0853 19.0715 13.9115 19.036C12.6504 18.7785 11.4173 18.2435 10.142 17.4006C7.28932 15.515 4.86514 13.0587 2.93692 10.1001C2.04816 8.73611 1.43777 7.40046 1.07093 6.01681C1.00458 5.76629 0.955085 5.51326 0.902696 5.24535C0.880907 5.13392 0.859062 5.02248 0.836051 4.91135V4.75971C0.881285 4.69482 0.926085 4.62963 0.970918 4.56445C1.11224 4.35882 1.24581 4.16458 1.39234 3.97909L1.55415 3.77403C1.6361 3.67011 1.71842 3.5658 1.80108 3.46143L5.06627 6.72661C4.91813 6.87881 4.82583 7.00371 4.7791 7.15999C4.70364 7.41221 4.77672 7.63478 4.8977 8.00351L4.93934 8.13078C5.43108 9.64708 6.23916 11.0362 7.40972 12.3775C8.36643 13.4737 9.36153 14.2627 10.4519 14.7895C11.1115 15.1082 11.7358 15.2899 12.3605 15.345C12.4207 15.3503 12.4795 15.353 12.5352 15.353C12.5353 15.353 12.5353 15.353 12.5353 15.353C12.8739 15.353 13.1562 15.2551 13.3943 15.0547L16.6363 18.2967C16.1991 18.6006 15.7399 18.8945 15.2598 19.1639ZM18.7368 16.6665C18.2709 17.0575 17.7592 17.4749 17.2072 17.8856L13.8879 14.5664C14.1263 14.3322 14.3756 14.0966 14.6334 13.8622C14.7068 13.7955 14.8254 13.6878 14.8791 13.6562C14.9373 13.6741 15.0735 13.7484 15.1578 13.7945C16.5638 14.5623 17.7922 15.3552 18.9133 16.2186C18.963 16.2568 19.0119 16.303 19.0619 16.3533C18.9525 16.4665 18.8479 16.5733 18.7368 16.6665Z" fill="#401E01"/>
<path d="M18.435 10.0125C17.6967 10.0125 17.0961 9.4118 17.0961 8.67351C17.0961 5.79787 14.7566 3.45841 11.881 3.45841C11.1427 3.45841 10.5421 2.85775 10.5421 2.11946C10.5421 1.38117 11.1427 0.780518 11.881 0.780518C16.2332 0.780518 19.774 4.32131 19.774 8.67352C19.774 9.4118 19.1733 10.0125 18.435 10.0125ZM11.881 1.47478C11.5255 1.47478 11.2363 1.76398 11.2363 2.11946C11.2363 2.47493 11.5255 2.76414 11.881 2.76414C15.1394 2.76414 17.7904 5.41505 17.7904 8.67351C17.7904 9.02897 18.0796 9.31818 18.435 9.31818C18.7905 9.31818 19.0797 9.02897 19.0797 8.67351C19.0797 4.70412 15.8504 1.47478 11.881 1.47478Z" fill="#401E01"/>
<path d="M14.9842 10.9166C14.428 10.9166 13.9756 10.4641 13.9756 9.90793C13.9756 8.05371 12.467 6.54517 10.6128 6.54517C10.0566 6.54517 9.60413 6.0927 9.60413 5.5365C9.60413 4.9803 10.0566 4.52783 10.6128 4.52783C13.5794 4.52783 15.9929 6.94135 15.9929 9.90792C15.9929 10.4641 15.5404 10.9166 14.9842 10.9166ZM10.6128 5.22211C10.4394 5.22211 10.2984 5.36313 10.2984 5.53651C10.2984 5.70989 10.4394 5.8509 10.6128 5.8509C12.8498 5.8509 14.6698 7.67089 14.6698 9.90793C14.6698 10.0813 14.8108 10.2223 14.9842 10.2223C15.1576 10.2223 15.2986 10.0813 15.2986 9.90793C15.2986 7.32414 13.1966 5.22211 10.6128 5.22211Z" fill="#401E01"/>
</svg>
