<svg width="274" height="100" viewBox="0 0 274 100" fill="none" xmlns="http://www.w3.org/2000/svg">
<path d="M14.6293 30.4545V45H11.5895V32.9545H5.70881V45H2.66903V30.4545H14.6293ZM22.4293 45.2131C21.3261 45.2131 20.372 44.9787 19.5671 44.5099C18.7669 44.0365 18.149 43.3783 17.7134 42.5355C17.2778 41.688 17.06 40.7055 17.06 39.5881C17.06 38.4612 17.2778 37.4763 17.7134 36.6335C18.149 35.786 18.7669 35.1278 19.5671 34.6591C20.372 34.1856 21.3261 33.9489 22.4293 33.9489C23.5326 33.9489 24.4843 34.1856 25.2844 34.6591C26.0894 35.1278 26.7096 35.786 27.1452 36.6335C27.5808 37.4763 27.7987 38.4612 27.7987 39.5881C27.7987 40.7055 27.5808 41.688 27.1452 42.5355C26.7096 43.3783 26.0894 44.0365 25.2844 44.5099C24.4843 44.9787 23.5326 45.2131 22.4293 45.2131ZM22.4435 42.8693C22.9454 42.8693 23.3645 42.7273 23.7006 42.4432C24.0368 42.1544 24.2901 41.7614 24.4606 41.2642C24.6358 40.767 24.7234 40.2012 24.7234 39.5668C24.7234 38.9323 24.6358 38.3665 24.4606 37.8693C24.2901 37.3722 24.0368 36.9792 23.7006 36.6903C23.3645 36.4015 22.9454 36.2571 22.4435 36.2571C21.9369 36.2571 21.5108 36.4015 21.1651 36.6903C20.8242 36.9792 20.5662 37.3722 20.391 37.8693C20.2205 38.3665 20.1353 38.9323 20.1353 39.5668C20.1353 40.2012 20.2205 40.767 20.391 41.2642C20.5662 41.7614 20.8242 42.1544 21.1651 42.4432C21.5108 42.7273 21.9369 42.8693 22.4435 42.8693ZM38.8356 30.0852L39.7589 32.0597C39.4511 32.3153 39.1102 32.5047 38.7362 32.6278C38.3621 32.7462 37.9147 32.8243 37.3938 32.8622C36.8777 32.9001 36.248 32.9261 35.5046 32.9403C34.6618 32.9498 33.9753 33.0848 33.445 33.3452C32.9147 33.6056 32.5122 34.0152 32.2376 34.5739C31.9629 35.1278 31.783 35.8523 31.6978 36.7472H31.8043C32.131 36.0795 32.5903 35.5634 33.1822 35.1989C33.7788 34.8343 34.515 34.652 35.391 34.652C36.319 34.652 37.131 34.8556 37.8271 35.2628C38.5278 35.67 39.0723 36.2547 39.4606 37.017C39.8488 37.7794 40.043 38.6932 40.043 39.7585C40.043 40.8665 39.8252 41.83 39.3896 42.6491C38.9587 43.4635 38.3455 44.0956 37.5501 44.5455C36.7546 44.9905 35.8076 45.2131 34.7092 45.2131C33.6059 45.2131 32.6542 44.9811 31.854 44.517C31.0586 44.053 30.4431 43.3688 30.0075 42.4645C29.5766 41.5601 29.3612 40.4474 29.3612 39.1264V38.2315C29.3612 35.6037 29.8725 33.6553 30.8952 32.3864C31.918 31.1174 33.4213 30.4735 35.4052 30.4545C35.945 30.4451 36.4326 30.4427 36.8683 30.4474C37.3039 30.4522 37.685 30.4309 38.0117 30.3835C38.3432 30.3362 38.6178 30.2367 38.8356 30.0852ZM34.7234 42.8693C35.1874 42.8693 35.5851 42.7486 35.9165 42.5071C36.2527 42.2656 36.5108 41.92 36.6907 41.4702C36.8754 41.0204 36.9677 40.483 36.9677 39.858C36.9677 39.2377 36.8754 38.7121 36.6907 38.2812C36.5108 37.8456 36.2527 37.5142 35.9165 37.2869C35.5804 37.0597 35.1779 36.946 34.7092 36.946C34.3588 36.946 34.0439 37.0099 33.7646 37.1378C33.4852 37.2656 33.2461 37.455 33.0472 37.706C32.8531 37.9522 32.7016 38.2576 32.5927 38.6222C32.4885 38.982 32.4364 39.3939 32.4364 39.858C32.4364 40.7907 32.6377 41.527 33.0401 42.0668C33.4473 42.6018 34.0084 42.8693 34.7234 42.8693ZM43.919 49.0909C43.5355 49.0909 43.1757 49.0601 42.8395 48.9986C42.508 48.9418 42.2334 48.8684 42.0156 48.7784L42.6974 46.5199C43.0526 46.6288 43.3722 46.688 43.6562 46.6974C43.9451 46.7069 44.1937 46.6406 44.402 46.4986C44.6151 46.3565 44.7879 46.1151 44.9205 45.7741L45.098 45.3125L41.1847 34.0909H44.3665L46.625 42.1023H46.7386L49.0185 34.0909H52.2216L47.9815 46.179C47.7779 46.7661 47.5009 47.2775 47.1506 47.7131C46.8049 48.1534 46.367 48.492 45.8366 48.7287C45.3063 48.9702 44.6671 49.0909 43.919 49.0909ZM53.2017 36.4702V34.0909H63.0881V36.4702H59.5724V45H56.6889V36.4702H53.2017ZM69.4606 45.2131C68.3574 45.2131 67.4033 44.9787 66.5984 44.5099C65.7982 44.0365 65.1803 43.3783 64.7447 42.5355C64.3091 41.688 64.0913 40.7055 64.0913 39.5881C64.0913 38.4612 64.3091 37.4763 64.7447 36.6335C65.1803 35.786 65.7982 35.1278 66.5984 34.6591C67.4033 34.1856 68.3574 33.9489 69.4606 33.9489C70.5638 33.9489 71.5155 34.1856 72.3157 34.6591C73.1206 35.1278 73.7409 35.786 74.1765 36.6335C74.6121 37.4763 74.8299 38.4612 74.8299 39.5881C74.8299 40.7055 74.6121 41.688 74.1765 42.5355C73.7409 43.3783 73.1206 44.0365 72.3157 44.5099C71.5155 44.9787 70.5638 45.2131 69.4606 45.2131ZM69.4748 42.8693C69.9767 42.8693 70.3957 42.7273 70.7319 42.4432C71.0681 42.1544 71.3214 41.7614 71.4918 41.2642C71.667 40.767 71.7546 40.2012 71.7546 39.5668C71.7546 38.9323 71.667 38.3665 71.4918 37.8693C71.3214 37.3722 71.0681 36.9792 70.7319 36.6903C70.3957 36.4015 69.9767 36.2571 69.4748 36.2571C68.9682 36.2571 68.542 36.4015 68.1964 36.6903C67.8555 36.9792 67.5974 37.3722 67.4222 37.8693C67.2518 38.3665 67.1665 38.9323 67.1665 39.5668C67.1665 40.2012 67.2518 40.767 67.4222 41.2642C67.5974 41.7614 67.8555 42.1544 68.1964 42.4432C68.542 42.7273 68.9682 42.8693 69.4748 42.8693ZM76.7972 45V34.0909H81.4492C82.7939 34.0909 83.8569 34.3466 84.6381 34.858C85.4194 35.3693 85.81 36.0961 85.81 37.0384C85.81 37.6302 85.5898 38.1226 85.1495 38.5156C84.7092 38.9086 84.0984 39.1738 83.3171 39.3111C83.9705 39.3584 84.5269 39.5076 84.9862 39.7585C85.4502 40.0047 85.8029 40.3243 86.0444 40.7173C86.2906 41.1103 86.4137 41.5459 86.4137 42.0241C86.4137 42.6444 86.248 43.1771 85.9165 43.6222C85.5898 44.0672 85.1093 44.4081 84.4748 44.6449C83.8451 44.8816 83.0756 45 82.1665 45H76.7972ZM79.6168 42.7344H82.1665C82.5879 42.7344 82.917 42.6349 83.1538 42.4361C83.3952 42.2325 83.516 41.9555 83.516 41.6051C83.516 41.2169 83.3952 40.9115 83.1538 40.6889C82.917 40.4664 82.5879 40.3551 82.1665 40.3551H79.6168V42.7344ZM79.6168 38.5795H81.5131C81.8162 38.5795 82.0742 38.5369 82.2873 38.4517C82.5051 38.3617 82.6708 38.2339 82.7844 38.0682C82.9028 37.9025 82.962 37.706 82.962 37.4787C82.962 37.1425 82.8271 36.8797 82.5572 36.6903C82.2873 36.5009 81.918 36.4062 81.4492 36.4062H79.6168V38.5795ZM91.4315 45.206C90.7354 45.206 90.1152 45.0852 89.5707 44.8438C89.0262 44.5975 88.5953 44.2353 88.2781 43.7571C87.9656 43.2741 87.8093 42.6728 87.8093 41.9531C87.8093 41.3471 87.9206 40.8381 88.1431 40.4261C88.3656 40.0142 88.6687 39.6828 89.0522 39.4318C89.4357 39.1809 89.8713 38.9915 90.359 38.8636C90.8514 38.7358 91.3675 38.6458 91.9073 38.5938C92.5418 38.5275 93.0531 38.4659 93.4414 38.4091C93.8297 38.3475 94.1114 38.2576 94.2866 38.1392C94.4618 38.0208 94.5494 37.8456 94.5494 37.6136V37.571C94.5494 37.1212 94.4073 36.7732 94.1232 36.527C93.8439 36.2808 93.4461 36.1577 92.93 36.1577C92.3855 36.1577 91.9523 36.2784 91.6303 36.5199C91.3084 36.7566 91.0953 37.0549 90.9911 37.4148L88.1928 37.1875C88.3349 36.5246 88.6142 35.9517 89.0309 35.4688C89.4476 34.9811 89.985 34.607 90.6431 34.3466C91.306 34.0814 92.073 33.9489 92.9442 33.9489C93.5503 33.9489 94.1303 34.0199 94.6843 34.1619C95.243 34.304 95.7378 34.5241 96.1687 34.8224C96.6043 35.1207 96.9476 35.5043 97.1985 35.973C97.4495 36.437 97.5749 36.9934 97.5749 37.642V45H94.7056V43.4872H94.6204C94.4452 43.8281 94.2108 44.1288 93.9173 44.3892C93.6237 44.6449 93.271 44.8461 92.859 44.9929C92.4471 45.1349 91.9712 45.206 91.4315 45.206ZM92.2979 43.1179C92.743 43.1179 93.136 43.0303 93.4769 42.8551C93.8178 42.6752 94.0853 42.4337 94.2795 42.1307C94.4736 41.8277 94.5707 41.4844 94.5707 41.1009V39.9432C94.476 40.0047 94.3458 40.0616 94.18 40.1136C94.0191 40.161 93.8368 40.206 93.6332 40.2486C93.4296 40.2865 93.226 40.322 93.0224 40.3551C92.8188 40.3835 92.6341 40.4096 92.4684 40.4332C92.1133 40.4853 91.8031 40.5682 91.538 40.6818C91.2728 40.7955 91.0669 40.9493 90.9201 41.1435C90.7733 41.3329 90.6999 41.5696 90.6999 41.8537C90.6999 42.2656 90.8491 42.5805 91.1474 42.7983C91.4504 43.0114 91.8339 43.1179 92.2979 43.1179ZM1.6392 60.4702V58.0909H11.5256V60.4702H8.00994V69H5.12642V60.4702H1.6392ZM17.9407 69.2131C16.8185 69.2131 15.8526 68.9858 15.043 68.5312C14.238 68.072 13.6178 67.4233 13.1822 66.5852C12.7466 65.7424 12.5288 64.7457 12.5288 63.5952C12.5288 62.473 12.7466 61.4882 13.1822 60.6406C13.6178 59.7931 14.2309 59.1326 15.0217 58.6591C15.8171 58.1856 16.7499 57.9489 17.82 57.9489C18.5397 57.9489 19.2096 58.0649 19.8299 58.2969C20.4549 58.5241 20.9994 58.8674 21.4634 59.3267C21.9322 59.786 22.2968 60.3636 22.5572 61.0597C22.8176 61.7509 22.9478 62.5606 22.9478 63.4886V64.3196H13.7362V62.4446H20.0998C20.0998 62.009 20.0051 61.6231 19.8157 61.2869C19.6263 60.9508 19.3635 60.688 19.0273 60.4986C18.6959 60.3045 18.31 60.2074 17.8697 60.2074C17.4104 60.2074 17.0032 60.3139 16.6481 60.527C16.2977 60.7353 16.0231 61.017 15.8242 61.3722C15.6254 61.7225 15.5236 62.1132 15.5188 62.544V64.3267C15.5188 64.8665 15.6183 65.3329 15.8171 65.7259C16.0207 66.1188 16.3072 66.4219 16.6765 66.6349C17.0458 66.848 17.4838 66.9545 17.9904 66.9545C18.3266 66.9545 18.6344 66.9072 18.9137 66.8125C19.1931 66.7178 19.4322 66.5758 19.631 66.3864C19.8299 66.197 19.9814 65.965 20.0856 65.6903L22.8839 65.875C22.7418 66.5473 22.4506 67.1345 22.0103 67.6364C21.5747 68.1335 21.0112 68.5218 20.32 68.8011C19.6334 69.0758 18.8403 69.2131 17.9407 69.2131ZM27.2553 58.0909L29.2582 61.9048L31.3107 58.0909H34.4144L31.2539 63.5455L34.4996 69H31.4102L29.2582 65.2287L27.1417 69H24.0167L27.2553 63.5455L24.1303 58.0909H27.2553ZM43.8036 62.3381V64.7173H38.1076V62.3381H43.8036ZM39.1019 58.0909V69H36.2113V58.0909H39.1019ZM45.6999 58.0909V69H42.8306V58.0909H45.6999ZM48.0472 69V58.0909H51.0728V69H48.0472ZM49.5671 56.6847C49.1173 56.6847 48.7314 56.5355 48.4094 56.2372C48.0922 55.9342 47.9336 55.572 47.9336 55.1506C47.9336 54.7339 48.0922 54.3764 48.4094 54.0781C48.7314 53.7751 49.1173 53.6236 49.5671 53.6236C50.0169 53.6236 50.4004 53.7751 50.7177 54.0781C51.0397 54.3764 51.2006 54.7339 51.2006 55.1506C51.2006 55.572 51.0397 55.9342 50.7177 56.2372C50.4004 56.5355 50.0169 56.6847 49.5671 56.6847ZM53.4964 69V58.0909H56.522V62.3239H57.3743L60.343 58.0909H63.8942L60.0376 63.5028L63.9368 69H60.343L57.6513 65.1293H56.522V69H53.4964ZM68.326 69.206C67.63 69.206 67.0097 69.0852 66.4652 68.8438C65.9207 68.5975 65.4898 68.2353 65.1726 67.7571C64.8601 67.2741 64.7038 66.6728 64.7038 65.9531C64.7038 65.3471 64.8151 64.8381 65.0376 64.4261C65.2602 64.0142 65.5632 63.6828 65.9467 63.4318C66.3303 63.1809 66.7659 62.9915 67.2536 62.8636C67.746 62.7358 68.2621 62.6458 68.8018 62.5938C69.4363 62.5275 69.9477 62.4659 70.3359 62.4091C70.7242 62.3475 71.0059 62.2576 71.1811 62.1392C71.3563 62.0208 71.4439 61.8456 71.4439 61.6136V61.571C71.4439 61.1212 71.3018 60.7732 71.0178 60.527C70.7384 60.2808 70.3407 60.1577 69.8246 60.1577C69.2801 60.1577 68.8468 60.2784 68.5249 60.5199C68.2029 60.7566 67.9898 61.0549 67.8857 61.4148L65.0874 61.1875C65.2294 60.5246 65.5088 59.9517 65.9254 59.4688C66.3421 58.9811 66.8795 58.607 67.5376 58.3466C68.2005 58.0814 68.9676 57.9489 69.8388 57.9489C70.4448 57.9489 71.0249 58.0199 71.5788 58.1619C72.1375 58.304 72.6323 58.5241 73.0632 58.8224C73.4988 59.1207 73.8421 59.5043 74.093 59.973C74.344 60.437 74.4695 60.9934 74.4695 61.642V69H71.6001V67.4872H71.5149C71.3397 67.8281 71.1054 68.1288 70.8118 68.3892C70.5182 68.6449 70.1655 68.8461 69.7536 68.9929C69.3416 69.1349 68.8658 69.206 68.326 69.206ZM69.1925 67.1179C69.6375 67.1179 70.0305 67.0303 70.3714 66.8551C70.7124 66.6752 70.9799 66.4337 71.174 66.1307C71.3681 65.8277 71.4652 65.4844 71.4652 65.1009V63.9432C71.3705 64.0047 71.2403 64.0616 71.0746 64.1136C70.9136 64.161 70.7313 64.206 70.5277 64.2486C70.3241 64.2865 70.1205 64.322 69.9169 64.3551C69.7133 64.3835 69.5286 64.4096 69.3629 64.4332C69.0078 64.4853 68.6977 64.5682 68.4325 64.6818C68.1674 64.7955 67.9614 64.9493 67.8146 65.1435C67.6679 65.3329 67.5945 65.5696 67.5945 65.8537C67.5945 66.2656 67.7436 66.5805 68.0419 66.7983C68.3449 67.0114 68.7285 67.1179 69.1925 67.1179ZM80.8846 65.9105H83.8178C83.832 66.2704 83.993 66.5545 84.3008 66.7628C84.6085 66.9711 85.0063 67.0753 85.494 67.0753C85.9864 67.0753 86.4007 66.9616 86.7369 66.7344C87.073 66.5024 87.2411 66.1709 87.2411 65.7401C87.2411 65.4749 87.1748 65.2453 87.0423 65.0511C86.9097 64.8523 86.725 64.696 86.4883 64.5824C86.2515 64.4687 85.9769 64.4119 85.6644 64.4119H84.0948V62.4304H85.6644C86.1332 62.4304 86.493 62.3215 86.744 62.1037C86.9996 61.8859 87.1275 61.6136 87.1275 61.2869C87.1275 60.9176 86.9949 60.6217 86.7298 60.3991C86.4693 60.1719 86.1166 60.0582 85.6715 60.0582C85.2217 60.0582 84.8477 60.16 84.5494 60.3636C84.2558 60.5625 84.1043 60.8229 84.0948 61.1449H81.1758C81.1853 60.4915 81.3817 59.9257 81.7653 59.4474C82.1535 58.9692 82.6744 58.5999 83.3278 58.3395C83.9859 58.0791 84.7222 57.9489 85.5366 57.9489C86.4267 57.9489 87.1938 58.0743 87.8377 58.3253C88.4864 58.5715 88.9835 58.9242 89.3292 59.3835C89.6796 59.8428 89.8548 60.3897 89.8548 61.0241C89.8548 61.6018 89.6654 62.0848 89.2866 62.473C88.9078 62.8613 88.3775 63.1383 87.6957 63.304V63.4176C88.1455 63.446 88.5527 63.5668 88.9173 63.7798C89.2818 63.9929 89.573 64.2865 89.7908 64.6605C90.0086 65.0298 90.1175 65.4678 90.1175 65.9744C90.1175 66.6515 89.9187 67.2315 89.521 67.7145C89.128 68.1974 88.5835 68.5691 87.8874 68.8295C87.1961 69.0852 86.4031 69.2131 85.5082 69.2131C84.637 69.2131 83.8557 69.0876 83.1644 68.8366C82.4779 68.581 81.931 68.2069 81.5238 67.7145C81.1213 67.2221 80.9083 66.6207 80.8846 65.9105Z" fill="#F2C84B"/>
<path d="M168.328 61.9901V44.5356H175.771C177.923 44.5356 179.623 44.9447 180.873 45.7628C182.123 46.581 182.748 47.7439 182.748 49.2515C182.748 50.1984 182.396 50.9863 181.692 51.6151C180.987 52.2439 180.01 52.6681 178.76 52.8878C179.805 52.9636 180.695 53.2022 181.43 53.6037C182.173 53.9977 182.737 54.5091 183.123 55.1378C183.517 55.7666 183.714 56.4636 183.714 57.2287C183.714 58.2212 183.449 59.0734 182.919 59.7856C182.396 60.4977 181.627 61.0431 180.612 61.4219C179.604 61.8007 178.373 61.9901 176.919 61.9901H168.328ZM172.839 58.3651H176.919C177.593 58.3651 178.12 58.206 178.498 57.8878C178.885 57.5621 179.078 57.1189 179.078 56.5583C179.078 55.9371 178.885 55.4484 178.498 55.0924C178.12 54.7363 177.593 54.5583 176.919 54.5583H172.839V58.3651ZM172.839 51.7174H175.873C176.358 51.7174 176.771 51.6492 177.112 51.5128C177.46 51.3689 177.726 51.1644 177.907 50.8992C178.097 50.6341 178.192 50.3197 178.192 49.956C178.192 49.4181 177.976 48.9977 177.544 48.6947C177.112 48.3916 176.521 48.2401 175.771 48.2401H172.839V51.7174ZM186.765 68.5356V44.5356H191.538V47.4674H191.754C191.966 46.9977 192.273 46.5204 192.674 46.0356C193.084 45.5431 193.614 45.1341 194.265 44.8083C194.924 44.475 195.743 44.3083 196.72 44.3083C197.993 44.3083 199.167 44.6416 200.243 45.3083C201.318 45.9674 202.178 46.9636 202.822 48.2969C203.466 49.6227 203.788 51.2856 203.788 53.2856C203.788 55.2325 203.474 56.8765 202.845 58.2174C202.224 59.5507 201.375 60.5621 200.299 61.2515C199.231 61.9333 198.034 62.2742 196.709 62.2742C195.769 62.2742 194.97 62.1189 194.311 61.8083C193.659 61.4977 193.125 61.1075 192.709 60.6378C192.292 60.1606 191.974 59.6795 191.754 59.1947H191.606V68.5356H186.765ZM191.504 53.2628C191.504 54.3007 191.648 55.206 191.936 55.9787C192.224 56.7515 192.64 57.3537 193.186 57.7856C193.731 58.2098 194.394 58.4219 195.174 58.4219C195.962 58.4219 196.629 58.206 197.174 57.7742C197.72 57.3348 198.133 56.7287 198.413 55.956C198.701 55.1757 198.845 54.278 198.845 53.2628C198.845 52.2553 198.705 51.3689 198.424 50.6037C198.144 49.8386 197.731 49.2401 197.186 48.8083C196.64 48.3765 195.97 48.1606 195.174 48.1606C194.387 48.1606 193.72 48.3689 193.174 48.7856C192.637 49.2022 192.224 49.7931 191.936 50.5583C191.648 51.3234 191.504 52.225 191.504 53.2628ZM214.902 62.331C213.137 62.331 211.61 61.956 210.322 61.206C209.042 60.4484 208.053 59.3954 207.356 58.0469C206.659 56.6909 206.311 55.1189 206.311 53.331C206.311 51.528 206.659 49.9522 207.356 48.6037C208.053 47.2477 209.042 46.1947 210.322 45.4447C211.61 44.6871 213.137 44.3083 214.902 44.3083C216.667 44.3083 218.19 44.6871 219.47 45.4447C220.758 46.1947 221.75 47.2477 222.447 48.6037C223.144 49.9522 223.493 51.528 223.493 53.331C223.493 55.1189 223.144 56.6909 222.447 58.0469C221.75 59.3954 220.758 60.4484 219.47 61.206C218.19 61.956 216.667 62.331 214.902 62.331ZM214.924 58.581C215.727 58.581 216.398 58.3537 216.936 57.8992C217.474 57.4371 217.879 56.8083 218.152 56.0128C218.432 55.2174 218.572 54.3121 218.572 53.2969C218.572 52.2818 218.432 51.3765 218.152 50.581C217.879 49.7856 217.474 49.1568 216.936 48.6947C216.398 48.2325 215.727 48.0015 214.924 48.0015C214.114 48.0015 213.432 48.2325 212.879 48.6947C212.334 49.1568 211.921 49.7856 211.64 50.581C211.368 51.3765 211.231 52.2818 211.231 53.2969C211.231 54.3121 211.368 55.2174 211.64 56.0128C211.921 56.8083 212.334 57.4371 212.879 57.8992C213.432 58.3537 214.114 58.581 214.924 58.581ZM226.64 61.9901V44.5356H241.902V61.9901H237.277V48.3424H231.209V61.9901H226.64ZM250.39 55.6037L256.674 44.5356H261.447V61.9901H256.834V50.8878L250.572 61.9901H245.765V44.5356H250.39V55.6037Z" fill="white"/>
<rect x="104.313" y="21.9406" width="57.4059" height="57.4059" rx="28.703" fill="#031D7B" stroke="white" stroke-width="2"/>
<path d="M132.859 33.8119C126.665 33.8119 121.635 39.4228 120.195 46.8069H117.175V49.697H119.87C119.84 50.1708 119.791 50.6581 119.791 51.1386C119.791 51.6259 119.84 52.1065 119.87 52.5803H117.175V55.4703H120.195C121.635 62.8545 126.665 68.4654 132.859 68.4654C136.401 68.4654 139.617 66.5838 141.927 63.6396L139.924 61.7445C138.024 64.1675 135.561 65.5821 132.859 65.5821C128.277 65.5821 124.245 61.3993 122.891 55.4771H134.164V52.587H122.444C122.407 52.1065 122.401 51.6327 122.401 51.1454C122.401 50.6581 122.407 50.1775 122.444 49.7038H134.164V46.8069H122.891C124.245 40.8847 128.283 36.7019 132.859 36.7019C135.567 36.7019 138.024 38.1165 139.924 40.5395L141.927 38.6444C139.617 35.6935 136.401 33.8119 132.859 33.8119Z" fill="#FFF8F8"/>
<path d="M133.016 25.8911L132.217 28.3664H129.626L131.721 29.8968L130.922 32.3798L133.016 30.8494L135.111 32.3798L134.312 29.8968L136.398 28.3664H133.815L133.016 25.8911ZM122.335 28.7724L121.536 31.2554H118.945L121.04 32.7859L120.241 35.2611L122.327 33.7307L124.422 35.2611L123.623 32.7859L125.717 31.2554H123.134L122.335 28.7724ZM143.698 28.7724L142.899 31.2554H140.308L142.402 32.7859L141.603 35.2611L143.698 33.7307L145.792 35.2611L144.993 32.7859L147.087 31.2554H144.497L143.698 28.7724ZM114.508 36.651L113.709 39.1263H111.126L113.213 40.6567L112.414 43.132L114.508 41.6015L116.603 43.132L115.804 40.6567L117.898 39.1263H115.307L114.508 36.651ZM151.517 36.651L150.718 39.1263H148.135L150.221 40.6489L149.422 43.132L151.517 41.6015L153.611 43.132L152.812 40.6567L154.906 39.1263H152.316L151.517 36.651ZM111.646 47.4031L110.847 49.8784H108.264L110.35 51.4088L109.551 53.8841L111.654 52.3536L113.74 53.8841L112.941 51.4088L115.036 49.8784H112.445L111.646 47.4031ZM154.379 47.4031L153.58 49.8784H150.997L153.084 51.4088L152.285 53.8841L154.379 52.3536L156.473 53.8841L155.674 51.4166L157.769 49.8784H155.178L154.379 47.4031ZM114.508 58.1552L113.709 60.6305H111.126L113.213 62.1609L112.414 64.644L114.508 63.1135L116.603 64.644L115.804 62.1609L117.898 60.6305H115.307L114.508 58.1552ZM151.517 58.1552L150.718 60.6305H148.135L150.221 62.1609L149.422 64.644L151.517 63.1135L153.611 64.644L152.812 62.1609L154.906 60.6305H152.316L151.517 58.1552ZM122.335 66.026L121.536 68.5091H118.945L121.04 70.0395L120.241 72.5148L122.335 70.9843L124.422 72.5148L123.623 70.0395L125.717 68.5091H123.134L122.335 66.026ZM143.698 66.026L142.899 68.5091H140.308L142.402 70.0317L141.603 72.5148L143.698 70.9843L145.792 72.5148L144.993 70.0317L147.087 68.5091H144.497L143.698 66.026ZM133.016 68.9073L132.217 71.3904H129.626L131.721 72.913L130.922 75.3961L133.016 73.8656L135.111 75.3961L134.312 72.913L136.398 71.3904H133.815L133.016 68.9073Z" fill="#F2B749"/>
</svg>
