<svg width="90" height="90" viewBox="0 0 90 90" fill="none" xmlns="http://www.w3.org/2000/svg">
<rect x="1" y="1" width="88" height="88" rx="44" fill="#031D7B" stroke="white" stroke-width="2"/>
<path d="M46 19C36.127 19 28.1094 27.0957 25.8145 37.75H21V41.9199H25.2969C25.248 42.6035 25.1699 43.3066 25.1699 44C25.1699 44.7031 25.248 45.3965 25.2969 46.0801H21V50.25H25.8145C28.1094 60.9043 36.127 69 46 69C51.6445 69 56.7715 66.2852 60.4531 62.0371L57.2598 59.3027C54.2324 62.7988 50.3066 64.8398 46 64.8398C38.6953 64.8398 32.2695 58.8047 30.1113 50.2598H48.0801V46.0898H29.3984C29.3398 45.3965 29.3301 44.7129 29.3301 44.0098C29.3301 43.3066 29.3398 42.6133 29.3984 41.9297H48.0801V37.75H30.1113C32.2695 29.2051 38.7051 23.1699 46 23.1699C50.3164 23.1699 54.2324 25.2109 57.2598 28.707L60.4531 25.9727C56.7715 21.7148 51.6445 19 46 19Z" fill="#FFF8F8"/>
<path d="M45.3219 5L44.0527 8.93218H39.9369L43.264 11.3634L41.9948 15.308L45.3219 12.8768L48.649 15.308L47.3798 11.3634L50.6946 8.93218H46.5912L45.3219 5ZM28.3535 9.57722L27.0842 13.5218H22.9684L26.2956 15.9531L25.0263 19.8853L28.3412 17.454L31.6683 19.8853L30.3991 15.9531L33.7262 13.5218H29.6227L28.3535 9.57722ZM62.2903 9.57722L61.0211 13.5218H56.9053L60.2324 15.9531L58.9632 19.8853L62.2903 17.454L65.6175 19.8853L64.3482 15.9531L67.6754 13.5218H63.5596L62.2903 9.57722ZM15.9198 22.0932L14.6506 26.0254H10.5471L13.8619 28.4567L12.5927 32.3889L15.9198 29.9576L19.247 32.3889L17.9777 28.4567L21.3049 26.0254H17.1891L15.9198 22.0932ZM74.7117 22.0932L73.4424 26.0254H69.339L72.6538 28.4443L71.3845 32.3889L74.7117 29.9576L78.0388 32.3889L76.7696 28.4567L80.0967 26.0254H75.9809L74.7117 22.0932ZM11.3727 39.1741L10.1035 43.1063H6L9.31482 45.5375L8.04558 49.4697L11.385 47.0385L14.6999 49.4697L13.4306 45.5375L16.7578 43.1063H12.642L11.3727 39.1741ZM79.2588 39.1741L77.9895 43.1063H73.8861L77.2009 45.5375L75.9316 49.4697L79.2588 47.0385L82.5859 49.4697L81.3167 45.5499L84.6438 43.1063H80.528L79.2588 39.1741ZM15.9198 56.2549L14.6506 60.1871H10.5471L13.8619 62.6184L12.5927 66.563L15.9198 64.1317L19.247 66.563L17.9777 62.6184L21.3049 60.1871H17.1891L15.9198 56.2549ZM74.7117 56.2549L73.4424 60.1871H69.339L72.6538 62.6184L71.3845 66.563L74.7117 64.1317L78.0388 66.563L76.7696 62.6184L80.0967 60.1871H75.9809L74.7117 56.2549ZM28.3535 68.7586L27.0842 72.7031H22.9684L26.2956 75.1344L25.0263 79.0666L28.3535 76.6353L31.6683 79.0666L30.3991 75.1344L33.7262 72.7031H29.6227L28.3535 68.7586ZM62.2903 68.7586L61.0211 72.7031H56.9053L60.2324 75.122L58.9632 79.0666L62.2903 76.6353L65.6175 79.0666L64.3482 75.122L67.6754 72.7031H63.5596L62.2903 68.7586ZM45.3219 73.3358L44.0527 77.2804H39.9369L43.264 79.6992L41.9948 83.6438L45.3219 81.2125L48.649 83.6438L47.3798 79.6992L50.6946 77.2804H46.5912L45.3219 73.3358Z" fill="#F2B749"/>
</svg>
