<svg width="80" height="80" viewBox="0 0 80 80" fill="none" xmlns="http://www.w3.org/2000/svg">
<path d="M17.5 12.5C14.7673 12.5 12.5 14.7673 12.5 17.5V62.5C12.5 65.2327 14.7673 67.5 17.5 67.5H62.5C65.2327 67.5 67.5 65.2327 67.5 62.5V17.5C67.5 14.7673 65.2327 12.5 62.5 12.5H17.5ZM17.5 17.5H62.5V62.5H49.5312V45.625H56.0156L56.9531 38.125H49.5312V33.2812C49.5312 31.0963 50.0706 29.6094 53.2031 29.6094H57.2656V22.8125C56.5731 22.72 54.1662 22.5781 51.4062 22.5781C45.6463 22.5781 41.7188 26.0425 41.7188 32.5V38.125H35.1562V45.625H41.7188V62.5H17.5V17.5Z" fill="#401E01"/>
</svg>
