<svg width="78" height="77" viewBox="0 0 78 77" fill="none" xmlns="http://www.w3.org/2000/svg">
<g clip-path="url(#clip0_35_131)">
<path fill-rule="evenodd" clip-rule="evenodd" d="M0.600006 38.6C0.600006 17.3923 17.7923 0.199951 39 0.199951C60.2077 0.199951 77.4 17.3923 77.4 38.6C77.4 59.8076 60.2077 77 39 77C17.7923 77 0.600006 59.8076 0.600006 38.6ZM39.0019 18.12C33.4398 18.12 32.7418 18.1443 30.5573 18.2436C28.377 18.3435 26.8888 18.6888 25.5866 19.1952C24.2395 19.7182 23.097 20.418 21.9586 21.5568C20.8194 22.6952 20.1195 23.8377 19.5947 25.1843C19.087 26.487 18.7414 27.9756 18.6434 30.155C18.5456 32.3396 18.52 33.038 18.52 38.6001C18.52 44.1622 18.5448 44.8582 18.6437 47.0427C18.744 49.223 19.0891 50.7112 19.5952 52.0134C20.1187 53.3604 20.8184 54.503 21.9573 55.6414C23.0952 56.7806 24.2378 57.482 25.584 58.0052C26.887 58.5116 28.3757 58.8568 30.5555 58.9566C32.7402 59.0561 33.4378 59.0804 38.9994 59.0804C44.5619 59.0804 45.2578 59.0561 47.4424 58.9566C49.6226 58.8568 51.1125 58.5116 52.4157 58.0052C53.7622 57.482 54.903 56.7806 56.041 55.6414C57.1802 54.503 57.88 53.3604 58.4048 52.0139C58.9083 50.7112 59.2539 49.2225 59.3563 47.0432C59.4544 44.8585 59.48 44.1622 59.48 38.6001C59.48 33.038 59.4544 32.3401 59.3563 30.1555C59.2539 27.9752 58.9083 26.487 58.4048 25.1848C57.88 23.8377 57.1802 22.6952 56.041 21.5568C54.9018 20.4176 53.7626 19.7179 52.4144 19.1952C51.1086 18.6888 49.6197 18.3435 47.4394 18.2436C45.2547 18.1443 44.5594 18.12 38.9955 18.12H39.0019Z" fill="#401E01"/>
<path fill-rule="evenodd" clip-rule="evenodd" d="M37.1647 21.8107C37.7099 21.8099 38.3184 21.8107 39.0019 21.8107C44.4701 21.8107 45.1183 21.8303 47.2776 21.9284C49.2744 22.0198 50.3583 22.3534 51.0802 22.6337C52.0359 23.0049 52.7173 23.4486 53.4336 24.1654C54.1504 24.8822 54.5943 25.5649 54.9663 26.5207C55.2466 27.2417 55.5807 28.3255 55.6715 30.3223C55.7696 32.4812 55.7911 33.1299 55.7911 38.5955C55.7911 44.0611 55.7696 44.7097 55.6715 46.8686C55.5802 48.8654 55.2466 49.9492 54.9663 50.6702C54.5951 51.626 54.1504 52.3065 53.4336 53.023C52.7168 53.7398 52.0363 54.1835 51.0802 54.5547C50.3591 54.8363 49.2744 55.1691 47.2776 55.2604C45.1187 55.3585 44.4701 55.3798 39.0019 55.3798C33.5333 55.3798 32.8851 55.3585 30.7263 55.2604C28.7295 55.1683 27.6456 54.8345 26.9234 54.5542C25.9675 54.183 25.2848 53.7393 24.568 53.0225C23.8512 52.3057 23.4075 51.6247 23.0355 50.6686C22.7552 49.9475 22.4211 48.8638 22.3303 46.867C22.232 44.7079 22.2125 44.0595 22.2125 38.5903C22.2125 33.1212 22.232 32.4761 22.3303 30.3172C22.4215 28.3204 22.7552 27.2366 23.0355 26.5147C23.4067 25.559 23.8512 24.8763 24.568 24.1595C25.2848 23.4427 25.9675 22.999 26.9234 22.6268C27.6453 22.3452 28.7295 22.0124 30.7263 21.9207C32.6155 21.8355 33.3477 21.8099 37.1647 21.8055V21.8107ZM49.9341 25.2111C48.5773 25.2111 47.4765 26.3108 47.4765 27.6679C47.4765 29.0247 48.5773 30.1255 49.9341 30.1255C51.2909 30.1255 52.3917 29.0247 52.3917 27.6679C52.3917 26.3111 51.2909 25.2111 49.9341 25.2111ZM39.0019 28.0827C33.1936 28.0827 28.4845 32.7919 28.4845 38.6001C28.4845 44.4084 33.1936 49.1155 39.0019 49.1155C44.8103 49.1155 49.5176 44.4084 49.5176 38.6001C49.5176 32.7919 44.8103 28.0827 39.0019 28.0827Z" fill="#401E01"/>
<path fill-rule="evenodd" clip-rule="evenodd" d="M39.0019 31.7734C42.772 31.7734 45.8286 34.8298 45.8286 38.6002C45.8286 42.3702 42.772 45.4269 39.0019 45.4269C35.2314 45.4269 32.1752 42.3702 32.1752 38.6002C32.1752 34.8298 35.2314 31.7734 39.0019 31.7734Z" fill="#401E01"/>
</g>
<defs>
<clipPath id="clip0_35_131">
<rect width="76.8" height="76.8" fill="white" transform="translate(0.600006 0.199951)"/>
</clipPath>
</defs>
</svg>
