<svg width="81" height="80" viewBox="0 0 81 80" fill="none" xmlns="http://www.w3.org/2000/svg">
<path d="M40.6 1.25C19.1925 1.25 1.85001 18.595 1.85001 40C1.85001 61.405 19.195 78.75 40.6 78.75C62.0075 78.75 79.35 61.405 79.35 40C79.35 18.595 62.005 1.25 40.6 1.25ZM59.6325 27.7975L53.2725 57.7675C52.8025 59.8925 51.5375 60.4075 49.7725 59.4075L40.085 52.2675L35.4125 56.7675C34.8975 57.2825 34.46 57.72 33.46 57.72L34.1475 47.86L52.1 31.64C52.8825 30.9525 51.9275 30.5625 50.895 31.25L28.7075 45.2175L19.145 42.2325C17.0675 41.5775 17.02 40.155 19.5825 39.155L56.9425 24.7475C58.6775 24.1225 60.1925 25.17 59.63 27.795L59.6325 27.7975Z" fill="#401E01"/>
</svg>
