<svg width="80" height="80" viewBox="0 0 80 80" fill="none" xmlns="http://www.w3.org/2000/svg">
<g clip-path="url(#clip0_35_135)">
<path d="M38.2107 8.48526C32.4742 8.56276 20.1308 9.50448 13.2261 15.831C8.10041 20.9269 6.30947 28.4396 6.10087 37.7432C5.92197 47.0112 5.71337 64.4146 22.491 69.1557V76.3674C22.491 76.3674 22.3777 79.2581 24.285 79.8542C26.6392 80.5991 27.9802 78.3671 30.2152 75.9831L34.3873 71.2746C45.8604 72.2282 54.6515 70.026 55.6647 69.6982C57.9892 68.9531 71.1043 67.2814 73.2499 49.8749C75.4552 31.9024 72.1771 20.5783 66.2767 15.4526L66.2468 15.4467C64.4588 13.8076 57.3067 8.5926 41.3039 8.53299C41.3039 8.53299 40.1238 8.45846 38.2107 8.48534V8.48526ZM38.4103 13.5424C40.0345 13.5335 41.0327 13.602 41.0327 13.602C54.5621 13.6318 61.0318 17.7145 62.5516 19.0853C67.5282 23.3438 70.0852 33.5564 68.2137 48.5638C66.4256 63.1064 55.7869 64.0302 53.8201 64.656C52.9857 64.9242 45.2376 66.8314 35.487 66.2056C35.487 66.2056 28.2186 74.9698 25.9538 77.2346C25.5962 77.6221 25.179 77.7413 24.9109 77.6817C24.5234 77.5923 24.4042 77.1154 24.434 76.4598L24.4936 64.4831C10.2759 60.5495 11.1102 45.7029 11.2592 37.9549C11.4381 30.2067 12.8983 23.8533 17.2194 19.5621C23.0513 14.2874 33.535 13.5722 38.4074 13.5424L38.4103 13.5424ZM39.4831 21.2905C39.3661 21.2901 39.2502 21.3128 39.1419 21.3572C39.0337 21.4016 38.9352 21.4669 38.8522 21.5494C38.7692 21.6318 38.7033 21.7298 38.6581 21.8378C38.613 21.9457 38.5895 22.0615 38.5892 22.1785V22.1815C38.5891 22.2989 38.6123 22.4152 38.6572 22.5236C38.7021 22.6321 38.768 22.7307 38.851 22.8137C38.934 22.8967 39.0325 22.9626 39.141 23.0075C39.2495 23.0524 39.3657 23.0756 39.4831 23.0756C41.6986 23.0333 43.9006 23.4303 45.9618 24.2435C48.0231 25.0568 49.9029 26.2702 51.4927 27.8139C54.741 30.9726 56.3233 35.2042 56.3829 40.7471C56.3829 40.8645 56.406 40.9808 56.451 41.0893C56.4959 41.1977 56.5618 41.2963 56.6448 41.3793C56.7278 41.4623 56.8264 41.5282 56.9348 41.5731C57.0433 41.618 57.1596 41.6411 57.277 41.6411V41.6143C57.5141 41.6143 57.7415 41.5201 57.9091 41.3525C58.0768 41.1848 58.171 40.9574 58.171 40.7203C58.2815 38.1136 57.8603 35.5117 56.933 33.0731C56.0056 30.6344 54.5916 28.41 52.777 26.5353C49.2309 23.0785 44.7549 21.2905 39.4802 21.2905H39.4831ZM27.7001 23.3467C27.0664 23.2564 26.4207 23.3824 25.8674 23.7043H25.8317C24.5514 24.4529 23.397 25.3982 22.4106 26.5056C21.606 27.4592 21.156 28.4098 21.0367 29.3336C20.9666 29.8754 21.0175 30.426 21.1858 30.9458L21.2454 30.9756C22.1639 33.6759 23.3625 36.2728 24.8214 38.7237C26.7126 42.1562 29.0361 45.332 31.7351 48.1734L31.8245 48.2926L31.9437 48.382L32.0331 48.4714L32.1225 48.5608C34.9751 51.2666 38.1593 53.5997 41.599 55.5042C45.5326 57.6499 47.9226 58.6631 49.3531 59.0803V59.1101C49.7379 59.2255 50.1373 59.2857 50.5391 59.2889C51.7601 59.1997 52.9161 58.7046 53.8231 57.8823C54.9284 56.9018 55.8648 55.746 56.5945 54.4612V54.4315C57.2799 53.15 57.0415 51.9253 56.0581 51.0909C54.0762 49.3571 51.9305 47.8201 49.6511 46.5016C48.1312 45.6672 46.5816 46.1738 45.9558 47.0081L44.6148 48.7039C43.9294 49.5382 42.6777 49.419 42.6777 49.419L42.642 49.4489C33.3443 47.0648 30.8709 37.6509 30.8709 37.6509C30.8709 37.6509 30.7517 36.3695 31.6159 35.7139L33.2846 34.3728C34.0893 33.7172 34.6555 32.1676 33.7913 30.6478C32.4746 28.3673 30.9375 26.2213 29.202 24.2407C28.8245 23.7726 28.2916 23.4554 27.7001 23.3467ZM41.0298 25.9989C40.9124 25.9993 40.7962 26.0228 40.6879 26.0681C40.5796 26.1134 40.4812 26.1796 40.3985 26.2629C40.3158 26.3462 40.2502 26.445 40.2057 26.5536C40.1611 26.6622 40.1384 26.7786 40.1388 26.896C40.1392 27.0134 40.1627 27.1295 40.208 27.2379C40.2533 27.3462 40.3195 27.4445 40.4027 27.5273C40.486 27.61 40.5848 27.6755 40.6934 27.7201C40.8021 27.7646 40.9184 27.7874 41.0358 27.787C44.018 27.8388 46.858 29.0712 48.9328 31.214C49.8689 32.2466 50.5885 33.4564 51.0492 34.7718C51.5098 36.0872 51.7022 37.4817 51.6149 38.8727C51.6156 39.1093 51.7102 39.3359 51.8778 39.5029C52.0454 39.6699 52.2723 39.7637 52.5089 39.7637L52.5387 39.7995C52.7758 39.7995 53.0032 39.7053 53.1708 39.5376C53.3385 39.37 53.4327 39.1426 53.4327 38.9055V38.9025C53.5221 35.3563 52.4195 32.3762 50.2441 29.9922C48.0687 27.6082 45.029 26.2672 41.155 25.9989C41.1133 25.996 41.0715 25.996 41.0298 25.9989ZM42.49 30.8236C42.2486 30.8165 42.0142 30.9056 41.8384 31.0713C41.6626 31.237 41.5599 31.4657 41.5528 31.7072C41.5457 31.9486 41.6348 32.183 41.8005 32.3588C41.9662 32.5345 42.1949 32.6373 42.4363 32.6444C45.3866 32.7934 46.817 34.2835 46.9958 37.3528C47.0035 37.5848 47.1011 37.8046 47.268 37.9659C47.4348 38.1271 47.6578 38.2172 47.8899 38.2171H47.9196C48.037 38.2134 48.1524 38.1867 48.2595 38.1384C48.3665 38.0901 48.4629 38.0213 48.5433 37.9357C48.6237 37.8501 48.6865 37.7496 48.728 37.6398C48.7696 37.53 48.7891 37.4131 48.7854 37.2957C48.7851 37.2849 48.7846 37.2742 48.7838 37.2635C48.5752 33.2703 46.3999 31.0322 42.5258 30.8236C42.5138 30.8234 42.5019 30.8234 42.49 30.8236Z" fill="#401E01"/>
</g>
<defs>
<clipPath id="clip0_35_135">
<rect width="80" height="80" fill="white"/>
</clipPath>
</defs>
</svg>
